<svg width="37" height="37" viewBox="0 0 37 37" fill="none" xmlns="http://www.w3.org/2000/svg">
<path d="M24.1611 4.4992C24.0815 4.44925 23.9905 4.42033 23.8967 4.41515C23.8028 4.40997 23.7092 4.42871 23.6246 4.4696L12.1324 9.99H2.4051C2.2579 9.99 2.11674 10.0485 2.01265 10.1526C1.90857 10.2566 1.8501 10.3978 1.8501 10.545V20.905C1.8501 20.905 1.8501 20.9272 1.8501 20.9383C1.8509 20.9772 1.85712 21.0158 1.8686 21.053C1.8686 21.053 1.8686 21.0863 1.8686 21.1048C1.87604 21.125 1.88469 21.1448 1.8945 21.164V21.1936L9.6349 34.1436C9.68425 34.2261 9.75418 34.2944 9.83786 34.3417C9.92153 34.3891 10.0161 34.4139 10.1122 34.4137H15.3551C15.4533 34.4139 15.5499 34.388 15.6348 34.3387C15.7198 34.2893 15.7901 34.2183 15.8386 34.1329C15.8872 34.0475 15.9122 33.9507 15.9111 33.8525C15.91 33.7543 15.8828 33.6581 15.8324 33.5738L8.5952 21.46H12.162L23.632 26.9545C23.7162 26.9935 23.8089 27.0107 23.9016 27.0046C23.9942 26.9985 24.0838 26.9693 24.1622 26.9196C24.2406 26.8699 24.3053 26.8013 24.3504 26.7202C24.3954 26.639 24.4194 26.5478 24.4201 26.455V4.9691C24.4202 4.87527 24.3964 4.78295 24.3512 4.70077C24.3059 4.6186 24.2405 4.54925 24.1611 4.4992V4.4992ZM2.9601 11.1H11.8401V20.35H2.9601V11.1ZM14.3783 33.3H10.46L3.3819 21.46H7.3002L14.3783 33.3ZM23.3101 25.5707L12.9501 20.609V10.8299L23.3101 5.8497V25.5707Z" fill="black"/>
<path d="M29.4149 12.3949C29.5321 12.3947 29.6461 12.3571 29.7405 12.2876L33.8105 9.32763C33.9297 9.24127 34.0098 9.11109 34.033 8.96572C34.0563 8.82035 34.0208 8.67171 33.9345 8.55248C33.8481 8.43325 33.7179 8.35321 33.5726 8.32996C33.4272 8.30672 33.2785 8.34217 33.1593 8.42853L29.0893 11.3885C28.9951 11.4576 28.925 11.5546 28.8891 11.6657C28.8533 11.7769 28.8534 11.8965 28.8894 12.0076C28.9255 12.1187 28.9957 12.2156 29.0901 12.2845C29.1844 12.3534 29.2981 12.3907 29.4149 12.3912V12.3949Z" fill="black"/>
<path d="M34.9649 15.1699H29.4149C29.2677 15.1699 29.1265 15.2284 29.0224 15.3325C28.9183 15.4366 28.8599 15.5777 28.8599 15.7249C28.8599 15.8721 28.9183 16.0133 29.0224 16.1174C29.1265 16.2214 29.2677 16.2799 29.4149 16.2799H34.9649C35.1121 16.2799 35.2532 16.2214 35.3573 16.1174C35.4614 16.0133 35.5199 15.8721 35.5199 15.7249C35.5199 15.5777 35.4614 15.4366 35.3573 15.3325C35.2532 15.2284 35.1121 15.1699 34.9649 15.1699Z" fill="black"/>
<path d="M33.8105 22.1224L29.7405 19.1624C29.6815 19.1197 29.6146 19.0889 29.5437 19.072C29.4728 19.0551 29.3993 19.0523 29.3273 19.0638C29.2553 19.0754 29.1863 19.1009 29.1242 19.1391C29.0621 19.1773 29.0082 19.2273 28.9654 19.2864C28.9226 19.3454 28.8919 19.4123 28.875 19.4832C28.8581 19.5541 28.8553 19.6276 28.8668 19.6996C28.8783 19.7716 28.9039 19.8406 28.9421 19.9027C28.9803 19.9648 29.0303 20.0188 29.0893 20.0615L33.1593 23.0215C33.2184 23.0643 33.2853 23.095 33.3562 23.1119C33.4271 23.1288 33.5006 23.1316 33.5726 23.1201C33.6446 23.1086 33.7136 23.083 33.7757 23.0448C33.8378 23.0066 33.8917 22.9566 33.9345 22.8976C33.9772 22.8385 34.008 22.7716 34.0249 22.7007C34.0418 22.6298 34.0446 22.5563 34.0331 22.4843C34.0215 22.4123 33.996 22.3433 33.9578 22.2812C33.9196 22.2191 33.8696 22.1652 33.8105 22.1224Z" fill="black"/>
</svg>
