<svg width="10" height="22" viewBox="0 0 10 22" fill="none" xmlns="http://www.w3.org/2000/svg">
<path d="M4.63378 21.5508C4.73482 21.6504 4.86724 21.7 4.99966 21.7C5.13207 21.7 5.26449 21.6504 5.36553 21.5508L9.84844 17.1308C10.0505 16.9319 10.0505 16.6085 9.84844 16.4096C9.64637 16.2104 9.31912 16.2104 9.11704 16.4096L5.51726 19.9589V0.790029C5.51726 0.508169 5.28587 0.280029 5 0.280029C4.71413 0.280029 4.48274 0.508169 4.48274 0.790029V19.9589L0.882961 16.4096C0.680885 16.2104 0.353633 16.2104 0.151557 16.4096C-0.050519 16.6085 -0.050519 16.9319 0.151557 17.1308L4.63378 21.5508Z" fill="black"/>
</svg>
