<svg xmlns="http://www.w3.org/2000/svg" width="384" height="433" fill="none" style=""><rect id="backgroundrect" width="100%" height="100%" x="0" y="0" fill="none" stroke="none"/>

<defs>
<clipPath id="clip0_2_39">
<rect width="384" height="433" fill="white" id="svg_1"/>
</clipPath>
</defs>
<g class="currentLayer" style=""><title>Layer 1</title><g clip-path="url(#clip0_2_39)" id="svg_2" class="selected" opacity="0.69">
<path d="M178.924,258.8960684833527 H60.8201 C58.3646,258.8960684833527 56.374,260.88806848335264 56.374,263.34606848335267 V275.51706848335266 C56.374,277.9750684833527 58.3646,279.9680684833527 60.8201,279.9680684833527 H178.924 C181.38,279.9680684833527 183.37,277.9750684833527 183.37,275.51706848335266 V263.34606848335267 C183.37,260.88806848335264 181.38,258.8960684833527 178.924,258.8960684833527 z" fill="white" stroke="#FE7523" stroke-width="5" stroke-miterlimit="10" id="svg_3" opacity="0.69"/>
<path d="M60.309,431.0880684833527 L74.4523,283.76006848335265 C74.7814,280.80606848335265 79.1155,280.8410684833527 79.399,283.79806848335267 L95.0653,431.0880684833527 " stroke="#3F4D79" stroke-width="6" stroke-miterlimit="10" id="svg_4" opacity="0.69"/>
<path d="M141.178,431.0880684833527 L155.322,283.76006848335265 C155.651,280.80606848335265 159.985,280.8410684833527 160.268,283.79806848335267 L175.935,431.0880684833527 " stroke="#3F4D79" stroke-width="6" stroke-miterlimit="10" id="svg_5" opacity="0.69"/>
<path d="M143.986,412.2900684833527 H173.519 " stroke="#3F4D79" stroke-width="6" stroke-miterlimit="10" stroke-linecap="round" id="svg_6" opacity="0.69"/>
<path d="M91.9566,412.2900684833527 H62.1749 " stroke="#3F4D79" stroke-width="6" stroke-miterlimit="10" stroke-linecap="round" id="svg_7" opacity="0.69"/>
<path d="M249.248,59.08746848335266 L254.326,61.71666848335266 C255.516,62.33286848335266 256.413,63.397068483352655 256.819,64.67506848335266 C257.225,65.95316848335266 257.107,67.34036848335266 256.492,68.53166848335266 L247.136,86.63846848335267 L233.096,79.36916848335267 L242.454,61.25916848335266 C243.069,60.07106848335266 244.129,59.17536848335266 245.403,58.768268483352664 C246.676,58.361168483352664 248.059,58.47596848335266 249.248,59.08746848335266 z" fill="#84D7EC" stroke="#3CBFD4" stroke-width="6" stroke-miterlimit="10" id="svg_8" opacity="0.69"/>
<path d="M233.087,79.36046848335266 L247.138,86.63626848335267 L240.854,98.79776848335266 C240.348,99.77806848335265 239.472,100.51806848335266 238.421,100.85206848335267 C237.37,101.18706848335266 236.229,101.09006848335267 235.25,100.58306848335266 L228.586,97.13266848335266 C227.606,96.62536848335266 226.868,95.74926848335267 226.534,94.69706848335267 C226.199,93.64476848335266 226.296,92.50276848335267 226.803,91.52196848335267 L233.087,79.36046848335266 z" fill="white" stroke="#3CBFD4" stroke-width="6" stroke-miterlimit="10" id="svg_9" opacity="0.69"/>
<path d="M230.369,84.62116848335266 L237.679,82.18906848335266 " stroke="#3CBFD4" stroke-width="3" stroke-miterlimit="10" id="svg_10" opacity="0.69"/>
<path d="M228.682,87.88726848335266 L241.393,83.65736848335266 " stroke="#3CBFD4" stroke-width="3" stroke-miterlimit="10" id="svg_11" opacity="0.69"/>
<path d="M227.488,91.16406848335266 L244.922,85.48326848335266 " stroke="#3CBFD4" stroke-width="3" stroke-miterlimit="10" id="svg_12" opacity="0.69"/>
<path d="M226.84,94.48616848335266 L245.381,88.44446848335267 " stroke="#3CBFD4" stroke-width="3" stroke-miterlimit="10" id="svg_13" opacity="0.69"/>
<path d="M228.402,97.09016848335266 L243.963,92.01916848335266 " stroke="#3CBFD4" stroke-width="3" stroke-miterlimit="10" id="svg_14" opacity="0.69"/>
<path d="M231.931,98.91596848335266 L242.587,95.44296848335266 " stroke="#3CBFD4" stroke-width="3" stroke-miterlimit="10" id="svg_15" opacity="0.69"/>
<path d="M383.629,22.09416848335266 L224.505,82.53596848335266 " stroke="#3F4D79" stroke-width="6" stroke-miterlimit="10" id="svg_16" opacity="0.69"/>
<path d="M328.54,42.13636848335266 V426.1890684833527 " stroke="#3F4D79" stroke-width="6" stroke-miterlimit="10" id="svg_17" opacity="0.69"/>
<path d="M328.54,354.41406848335265 L367.399,426.1890684833527 " stroke="#3F4D79" stroke-width="6" stroke-miterlimit="10" id="svg_18" opacity="0.69"/>
<path d="M328.19,354.41406848335265 L292.831,426.1890684833527 " stroke="#3F4D79" stroke-width="6" stroke-miterlimit="10" id="svg_19" opacity="0.69"/>
<path d="M372.377,26.23646848335266 C372.153,29.709368483352662 358.43,71.04126848335267 303.176,54.40196848335266 C253.331,39.39226848335266 244.092,75.89146848335267 244.092,75.89146848335267 " stroke="#3F4D79" stroke-width="4" stroke-miterlimit="10" id="svg_20" opacity="0.69"/>
<path d="M356.826,32.27456848335266 C346.982,36.01386848335266 298.247,54.52796848335266 328.54,165.65506848335266 C357.481,271.8410684833527 335.566,322.65606848335267 328.19,353.2010684833527 " stroke="#3F4D79" stroke-width="4" stroke-miterlimit="10" id="svg_21" opacity="0.69"/>
<path d="M329.467,429.4660684833527 C325.844,431.69806848335264 298.432,431.5690684833527 294.249,429.4660684833527 C290.065,427.36306848335266 289.295,423.7610684833527 288.599,419.01506848335265 C287.902,414.27006848335265 278.446,415.47606848335266 277.788,412.4270684833527 C276.43,406.11906848335263 284.471,394.26006848335265 286.334,391.5330684833527 C284.8,396.06106848335264 302.602,395.30106848335265 303.838,392.3670684833527 C305.452,399.76206848335266 317.515,413.82906848335267 324.594,416.4780684833527 C328.515,417.95006848335265 333.091,427.23306848335267 329.467,429.4660684833527 z" fill="#FFB000" id="svg_22" opacity="0.69"/>
<path d="M277.788,414.17906848335264 C277.788,414.17906848335264 285.703,415.3360684833527 287.898,419.36906848335263 C290.191,423.57506848335265 290.069,427.3740684833527 294.249,429.4660684833527 C298.429,431.55806848335266 326.894,431.69806848335264 330.518,429.4660684833527 " stroke="#3F4D79" stroke-width="7" stroke-miterlimit="10" stroke-linecap="round" id="svg_23" opacity="0.69"/>
<path d="M303.992,411.20706848335266 C306.049,410.2230684833527 308.279,409.65406848335266 310.556,409.53406848335266 C312.833,409.41406848335265 315.111,409.74406848335263 317.26,410.50606848335264 " stroke="#3F4D79" stroke-width="7" stroke-miterlimit="10" stroke-linecap="round" id="svg_24" opacity="0.69"/>
<path d="M300.841,405.6000684833527 C300.841,405.6000684833527 304.674,401.9630684833527 312.009,404.54906848335264 " stroke="#3F4D79" stroke-width="7" stroke-miterlimit="10" stroke-linecap="round" id="svg_25" opacity="0.69"/>
<path d="M299.441,372.19206848335267 L303.831,392.3530684833527 C302.602,395.28706848335264 289.302,397.26006848335265 286.677,393.2710684833527 C282.861,387.44706848335267 274.672,372.46506848335264 274.672,372.46506848335264 L299.441,372.19206848335267 z" fill="#C36F0B" id="svg_26" opacity="0.69"/>
<path d="M262.017,240.18206848335265 C256.986,226.51406848335267 156.785,207.94006848335266 156.785,207.94006848335266 L109.772,218.83206848335266 C108.043,223.65106848335267 104.924,253.78606848335266 130.294,265.57906848335267 C157.219,278.0930684833527 219.215,266.0520684833527 219.215,266.0520684833527 C219.215,266.0520684833527 212.382,309.30806848335266 273.601,372.54206848335264 H300.557 C294.883,336.68106848335265 269.165,259.6100684833527 262.017,240.18206848335265 z" fill="#30456D" id="svg_27" opacity="0.69"/>
<path d="M269.564,368.59606848335267 C269.564,368.59606848335267 269.214,375.34606848335267 275.866,376.39706848335265 C278.352,376.78606848335266 300.585,375.34606848335267 301.909,374.2950684833527 C303.232,373.24306848335266 300.858,366.8480684833527 300.858,366.8480684833527 C300.858,366.8480684833527 288.504,370.5690684833527 269.564,368.59606848335267 z" fill="#485784" id="svg_28" opacity="0.69"/>
<path d="M212.539,429.4660684833527 C208.916,431.69806848335264 183.255,431.5690684833527 179.071,429.4660684833527 C174.888,427.36306848335266 175.868,423.7610684833527 175.171,419.0160684833527 C174.475,414.27006848335265 166.328,408.85206848335264 165.772,405.77906848335266 C165.772,405.77906848335266 168.436,394.83506848335264 177.107,389.78106848335267 C175.574,394.3090684833527 191.976,395.30106848335265 193.211,392.3670684833527 C194.913,402.27506848335264 201.897,416.6890684833527 208.366,418.23106848335266 C212.438,419.20506848335265 216.163,427.23406848335264 212.539,429.4660684833527 z" fill="#FFB000" id="svg_29" opacity="0.69"/>
<path d="M165.772,406.1290684833527 C165.772,406.1290684833527 173.288,416.2640684833527 174.471,419.36906848335263 C176.176,423.8480684833527 174.891,427.3740684833527 179.071,429.4660684833527 C183.251,431.55806848335266 209.966,431.69806848335264 213.59,429.4660684833527 " stroke="#3F4D79" stroke-width="7" stroke-miterlimit="10" stroke-linecap="round" id="svg_30" opacity="0.69"/>
<path d="M188.814,411.20706848335266 C188.814,411.20706848335266 193.698,407.21906848335266 201.032,409.80606848335265 " stroke="#3F4D79" stroke-width="7" stroke-miterlimit="10" stroke-linecap="round" id="svg_31" opacity="0.69"/>
<path d="M185.664,405.6000684833527 C185.664,405.6000684833527 190.547,401.6120684833527 197.881,404.1990684833527 " stroke="#3F4D79" stroke-width="7" stroke-miterlimit="10" stroke-linecap="round" id="svg_32" opacity="0.69"/>
<path d="M196.516,372.19206848335267 L193.204,392.3530684833527 C191.976,395.28706848335264 177.619,396.27506848335264 177.1,391.51906848335267 C176.561,386.50806848335264 174.898,372.46506848335264 174.898,372.46506848335264 L196.516,372.19206848335267 z" fill="#C36F0B" id="svg_33" opacity="0.69"/>
<path d="M218.865,247.24306848335266 C212.175,222.41406848335265 130.294,215.59106848335267 130.294,215.59106848335267 L58.1139,215.67806848335266 C56.3845,220.49706848335265 53.2652,253.78606848335266 78.6358,265.57906848335267 C105.557,278.0930684833527 161.606,271.0810684833527 161.606,271.0810684833527 C161.606,271.0810684833527 149.93,327.6050684833527 173.228,372.54206848335264 H204.501 C198.82,336.68106848335265 224.25,267.23306848335267 218.865,247.24306848335266 z" fill="#3F4D79" id="svg_34" opacity="0.69"/>
<path d="M170.141,366.84406848335266 C170.141,366.84406848335266 168.39,375.34606848335267 175.042,376.39706848335265 C177.528,376.78606848335266 202.912,375.69606848335263 204.235,374.64506848335265 C205.559,373.59406848335266 204.585,365.79606848335266 204.585,365.79606848335266 C204.585,365.79606848335266 189.08,368.81706848335267 170.141,366.84406848335266 z" fill="#4E628C" id="svg_35" opacity="0.69"/>
<path d="M156.796,207.65006848335267 C156.796,207.65006848335267 152.097,216.54406848335267 121.322,216.14806848335266 C125.067,194.19206848335267 131.562,155.04706848335266 131.428,141.68106848335268 C131.236,122.91806848335266 131.127,79.46626848335266 126.31,71.30086848335266 L126.09,71.00996848335267 L144.21,69.44346848335266 C144.518,71.05556848335266 144.823,72.21206848335267 144.823,72.21206848335267 C144.823,72.21206848335267 159.575,105.62706848335266 154.499,142.86906848335266 C148.198,189.10706848335266 156.796,207.65006848335267 156.796,207.65006848335267 z" fill="white" id="svg_36" opacity="0.69"/>
<path d="M109.524,49.29256848335266 C105.673,49.96196848335266 57.5747,64.27426848335266 49.9464,67.44936848335266 C33.0969,74.46176848335266 13.4152,125.29406848335266 1.3477800000000002,150.96806848335265 L45.6999,148.69406848335265 C45.6999,148.69406848335265 61.4537,122.21706848335266 62.5774,122.21706848335266 C63.7012,122.21706848335266 65.1716,171.99906848335266 61.7652,182.23206848335266 C58.3589,192.46506848335267 46.4316,210.65706848335267 45.4828,217.27606848335267 C45.4828,217.27606848335267 64.4154,231.29406848335267 118.745,231.86606848335265 C118.745,231.86606848335265 131.617,160.42706848335266 131.428,141.66406848335265 C131.239,122.90106848335266 131.127,79.45216848335266 126.31,71.28676848335266 L109.524,49.29256848335266 z" fill="#DAF3F9" id="svg_37" opacity="0.69"/>
<path d="M145.467,59.830568483352664 C146.822,59.62026848335266 149.601,65.21696848335266 167.585,70.90126848335267 C185.569,76.58556848335266 211.125,146.70706848335266 211.125,146.70706848335266 L173.554,157.62006848335267 C173.554,157.62006848335267 168.908,174.40606848335267 182.744,213.25306848335265 C182.744,213.25306848335265 161.161,210.69206848335267 156.81,208.60606848335266 C156.81,208.60606848335266 148.211,189.10706848335266 154.513,142.86906848335266 C159.575,105.62706848335266 144.823,72.20836848335266 144.823,72.20836848335266 C144.823,72.20836848335266 141.71,60.41236848335266 145.467,59.830568483352664 z" fill="#DAF3F9" id="svg_38" opacity="0.69"/>
<path d="M173.263,100.08306848335266 C173.263,100.08306848335266 180.087,119.98506848335266 173.263,157.20606848335265 " stroke="#AEE5F2" stroke-width="4" stroke-miterlimit="10" id="svg_39" opacity="0.69"/>
<path d="M114.638,47.45626848335266 C114.638,47.45626848335266 113.634,41.49866848335266 115.146,39.39596848335266 C116.658,37.29326848335266 130.333,39.09456848335266 130.333,39.09456848335266 C130.333,39.09456848335266 121.321,45.32556848335266 114.638,47.45626848335266 z" fill="#AEE5F2" id="svg_40" opacity="0.69"/>
<path d="M152.125,75.41856848335266 L144.207,68.47616848335267 C144.207,68.47616848335267 143.58,56.93936848335266 145.467,59.830568483352664 C147.802,63.408668483352656 155.017,65.85826848335266 155.017,65.85826848335266 L152.125,75.41856848335266 z" fill="white" id="svg_41" opacity="0.69"/>
<path d="M151.761,75.41856848335266 L143.842,68.47616848335267 " stroke="#AEE5F2" stroke-width="4" stroke-miterlimit="10" id="svg_42" opacity="0.69"/>
<path d="M115.146,39.39246848335266 C113.256,41.62476848335266 114.012,58.50936848335266 126.023,71.01336848335266 L114.771,77.62986848335267 C114.771,77.62986848335267 94.344,53.96406848335266 96.9731,51.82636848335266 C105.494,44.89096848335266 115.146,39.39246848335266 115.146,39.39246848335266 z" fill="white" id="svg_43" opacity="0.69"/>
<path d="M126.023,71.37776848335267 L114.771,77.99076848335267 " stroke="#AEE5F2" stroke-width="4" stroke-miterlimit="10" id="svg_44" opacity="0.69"/>
<path d="M182.656,172.74106848335265 C182.656,172.74106848335265 163.839,166.12806848335265 174.926,148.03506848335266 C182.789,135.21906848335266 208.405,135.19106848335267 212.329,146.47906848335265 C215.302,155.05106848335265 207.089,173.70506848335265 182.656,172.74106848335265 z" fill="#AEE5F2" id="svg_45" opacity="0.69"/>
<path d="M192.168,152.21206848335265 C182.607,154.79806848335267 174.835,167.55106848335265 179.964,171.48706848335266 C189.217,178.56906848335265 209.543,180.59806848335265 241.39,163.00906848335265 C251.245,157.55306848335266 234.437,146.50306848335265 234.437,146.50306848335265 L192.168,152.21206848335265 z" fill="#FAB6AD" id="svg_46" opacity="0.69"/>
<path d="M109.153,242.96806848335265 C80.7959,252.03106848335267 50.2931,235.73106848335266 40.9878,206.56706848335267 C31.6826,177.40306848335265 47.1073,146.40906848335266 75.4466,137.34606848335267 C86.4243,133.83206848335266 98.251,134.02106848335265 109.111,137.88606848335266 C121.679,142.31606848335267 135.272,139.75006848335266 145.498,131.48306848335267 C149.369,128.36006848335265 153.784,125.98406848335266 158.521,124.47406848335267 C180.199,117.54306848335266 200.36,131.02806848335265 207.477,153.33406848335267 C214.594,175.64006848335265 205.979,198.32406848335265 184.302,205.25606848335266 C179.566,206.77606848335267 174.59,207.40106848335267 169.626,207.10006848335266 C156.508,206.29706848335266 143.94,212.09706848335267 136.27,222.99906848335266 C129.658,232.44706848335267 120.131,239.46206848335265 109.153,242.96806848335265 z" fill="white" stroke="#3CBFD4" stroke-width="6" stroke-miterlimit="10" id="svg_47" opacity="0.69"/>
<path d="M130.109,193.47406848335265 C139.318,193.47406848335265 146.783,186.00106848335267 146.783,176.78206848335267 C146.783,167.56406848335266 139.318,160.09006848335267 130.109,160.09006848335267 C120.9,160.09006848335267 113.434,167.56406848335266 113.434,176.78206848335267 C113.434,186.00106848335267 120.9,193.47406848335265 130.109,193.47406848335265 z" fill="#3CBFD4" id="svg_48" opacity="0.69"/>
<path d="M97.5031,174.03006848335266 L94.1975,175.27606848335267 C93.3543,175.59406848335266 92.9282,176.53606848335266 93.2458,177.38006848335266 L102.823,202.83306848335266 C103.141,203.67706848335266 104.082,204.10306848335267 104.925,203.78606848335266 L108.23,202.53906848335265 C109.074,202.22106848335267 109.5,201.27906848335266 109.182,200.43506848335267 L99.6048,174.98306848335267 C99.2872,174.13906848335267 98.3462,173.71206848335265 97.5031,174.03006848335266 z" fill="#3CBFD4" id="svg_49" opacity="0.69"/>
<path d="M279.49,126.62306848335267 L156.985,179.89106848335265 C155.052,180.76006848335265 152.217,181.03306848335265 151.135,178.15606848335267 L145.236,162.49106848335265 C144.154,159.61406848335267 145.912,158.63606848335266 147.935,158.02306848335266 L275.656,116.43906848335266 L279.49,126.62306848335267 z" fill="#FFB000" id="svg_50" opacity="0.69"/>
<path d="M94.7818,186.68606848335267 C93.7,183.81206848335268 95.1319,180.64406848335267 97.9325,179.72606848335266 L275.866,118.94806848335266 " stroke="white" stroke-width="3" stroke-miterlimit="10" id="svg_51" opacity="0.69"/>
<path d="M96.8473,192.17406848335267 C95.762,189.29706848335266 97.1974,186.12906848335265 99.9981,185.21106848335265 L276.685,121.20506848335266 " stroke="white" stroke-width="3" stroke-miterlimit="10" id="svg_52" opacity="0.69"/>
<path d="M97.4319,193.73006848335265 C98.5136,196.60706848335266 101.685,198.03306848335265 104.402,196.88406848335265 L278.135,125.04206848335266 " stroke="white" stroke-width="3" stroke-miterlimit="10" id="svg_53" opacity="0.69"/>
<path d="M95.2473,187.92306848335267 C96.3291,190.80006848335267 99.4973,192.22606848335266 102.214,191.07706848335266 L277.287,122.76806848335266 " stroke="white" stroke-width="3" stroke-miterlimit="10" id="svg_54" opacity="0.69"/>
<path d="M322.032,110.80706848335267 L280.561,131.48306848335267 C280.189,131.66806848335267 279.779,131.76406848335267 279.364,131.76206848335266 C278.949,131.76106848335266 278.54,131.66206848335267 278.169,131.47406848335265 C277.799,131.28606848335266 277.478,131.01406848335267 277.231,130.68006848335267 C276.984,130.34606848335267 276.819,129.95806848335266 276.748,129.54906848335267 L273.969,113.31206848335266 C273.854,112.63606848335266 274.004,111.94206848335266 274.387,111.37306848335267 C274.77,110.80506848335266 275.358,110.40606848335266 276.027,110.26006848335265 L305.851,103.75606848335266 C307.297,103.44106848335267 308.802,103.53806848335266 310.195,104.03606848335266 L321.881,108.21706848335266 C322.144,108.30706848335267 322.374,108.47406848335267 322.542,108.69506848335266 C322.71,108.91706848335266 322.808,109.18406848335266 322.824,109.46106848335266 C322.84,109.73906848335267 322.774,110.01506848335266 322.633,110.25506848335266 C322.491,110.49406848335266 322.282,110.68606848335266 322.032,110.80706848335267 z" fill="white" stroke="#3CBFD4" stroke-width="6" stroke-miterlimit="10" id="svg_55" opacity="0.69"/>
<path d="M282.716,105.56606848335267 C284.135,104.78306848335266 285.026,103.67606848335267 284.705,103.09306848335267 C284.384,102.51006848335265 282.973,102.67206848335266 281.554,103.45406848335266 C280.135,104.23706848335266 279.245,105.34406848335266 279.565,105.92706848335266 C279.886,106.51006848335265 281.297,106.34906848335267 282.716,105.56606848335267 z" fill="white" stroke="#FE7523" stroke-width="5" stroke-miterlimit="10" id="svg_56" opacity="0.69"/>
<path d="M293.046,103.20506848335266 C294.413,102.33406848335267 295.231,101.17306848335267 294.874,100.61106848335267 C294.517,100.04906848335266 293.119,100.30006848335266 291.752,101.17206848335266 C290.386,102.04306848335266 289.567,103.20406848335266 289.925,103.76606848335265 C290.282,104.32806848335267 291.679,104.07706848335266 293.046,103.20506848335266 z" fill="white" stroke="#FE7523" stroke-width="5" stroke-miterlimit="10" id="svg_57" opacity="0.69"/>
<path d="M302.918,100.87306848335267 C304.285,100.00206848335266 305.103,98.84036848335266 304.746,98.27876848335266 C304.388,97.71716848335267 302.991,97.96816848335266 301.624,98.83936848335266 C300.258,99.71106848335266 299.439,100.87206848335266 299.797,101.43406848335266 C300.154,101.99506848335267 301.551,101.74406848335266 302.918,100.87306848335267 z" fill="white" stroke="#FE7523" stroke-width="5" stroke-miterlimit="10" id="svg_58" opacity="0.69"/>
<path d="M290.578,130.93306848335266 C291.939,130.05706848335265 292.751,128.89406848335267 292.392,128.33506848335267 C292.032,127.77506848335267 290.638,128.03206848335267 289.277,128.90806848335265 C287.916,129.78406848335266 287.104,130.94706848335267 287.463,131.50606848335266 C287.822,132.06606848335267 289.217,131.80906848335266 290.578,130.93306848335266 z" fill="white" stroke="#FE7523" stroke-width="4.993" stroke-miterlimit="10" id="svg_59" opacity="0.69"/>
<path d="M301.463,127.06106848335266 C302.829,126.19006848335266 303.648,125.02906848335266 303.29,124.46706848335266 C302.933,123.90506848335266 301.535,124.15606848335266 300.169,125.02806848335265 C298.802,125.89906848335266 297.984,127.06006848335267 298.341,127.62206848335265 C298.698,128.18306848335266 300.096,127.93206848335265 301.463,127.06106848335266 z" fill="white" stroke="#FE7523" stroke-width="5" stroke-miterlimit="10" id="svg_60" opacity="0.69"/>
<path d="M312.849,121.37506848335266 C314.216,120.50406848335265 315.034,119.34306848335267 314.677,118.78106848335266 C314.32,118.22006848335266 312.922,118.47106848335267 311.556,119.34206848335266 C310.189,120.21306848335266 309.371,121.37506848335266 309.728,121.93606848335266 C310.085,122.49806848335267 311.483,122.24706848335266 312.849,121.37506848335266 z" fill="white" stroke="#FE7523" stroke-width="5" stroke-miterlimit="10" id="svg_61" opacity="0.69"/>
<path d="M241.39,162.99906848335266 C244.807,161.24706848335265 254.956,148.02406848335266 255.82,144.48506848335265 C256.685,140.94506848335266 256.895,127.08106848335267 256.479,125.94306848335266 C256.062,124.80406848335267 251.885,121.79006848335266 251.885,121.79006848335266 C251.885,121.79006848335266 247.94,120.19206848335266 244.653,119.98506848335266 C244.653,119.98506848335266 243.658,123.16706848335266 246.967,125.24206848335267 C246.967,125.24206848335267 248.329,133.91906848335267 247.18,134.70406848335267 C245.727,135.69906848335265 244.579,129.95506848335265 243.483,127.10606848335266 C242.783,125.35406848335266 237.952,127.67406848335267 237.903,128.83406848335267 C237.862,129.43806848335265 237.901,130.04506848335265 238.019,130.63906848335267 C238.019,130.63906848335267 235.144,131.83406848335267 234.413,133.16906848335267 C233.681,134.50406848335265 231.612,150.50206848335267 234.133,155.37006848335267 C236.653,160.23706848335266 241.39,162.99906848335266 241.39,162.99906848335266 z" fill="#FFCFC9" id="svg_62" opacity="0.69"/>
<path d="M237.802,131.47606848335266 C237.868,132.39406848335267 238.771,136.43506848335267 238.771,136.43506848335267 " stroke="#FAB6AD" stroke-width="3" stroke-miterlimit="10" stroke-linecap="round" id="svg_63" opacity="0.69"/>
<path d="M251.182,122.25606848335266 C252.817,122.95706848335266 253.331,132.62206848335265 253.331,132.62206848335265 " stroke="#FAB6AD" stroke-width="3" stroke-miterlimit="10" stroke-linecap="round" id="svg_64" opacity="0.69"/>
<path d="M47.3244,145.75706848335267 C36.0587,144.32406848335265 24.947,146.36306848335266 14.9171,155.26506848335265 C13.3697,156.63806848335267 6.20351,165.23806848335266 10.6601,172.26506848335265 C10.485,172.55906848335266 10.31,172.85406848335265 10.149000000000001,173.15506848335266 C10.149000000000001,173.15506848335266 -7.56879,160.45106848335266 3.81944,145.29406848335267 C12.8516,133.27406848335266 37.263,135.45006848335265 44.3732,140.58406848335267 C46.5612,142.14706848335265 47.1598,144.55506848335267 47.3244,145.75706848335267 z" fill="#AEE5F2" id="svg_65" opacity="0.69"/>
<path d="M14.9136,155.26506848335265 C12.463,157.42706848335266 -3.89641,177.52906848335266 33.1635,181.15206848335265 C70.2233,184.77606848335267 107.623,181.54806848335267 109.258,182.24906848335266 C110.893,182.95006848335265 122.522,189.32506848335265 126.646,188.72906848335265 C130.77,188.13306848335267 144.06,184.87406848335266 144.501,183.26606848335265 C144.942,181.65706848335267 149.664,165.50506848335266 149.664,165.50506848335266 C149.664,165.50506848335266 145.386,164.10306848335267 142.761,168.71806848335265 C139.788,173.93706848335268 129.272,176.47406848335265 125.652,173.93706848335268 C122.032,171.39906848335266 131.681,170.76506848335265 133.746,169.12506848335266 C135.812,167.48506848335265 135.976,166.44806848335267 135.976,166.44806848335267 C135.976,166.44806848335267 128.537,164.90206848335265 125.824,163.95606848335265 C123.11,163.01006848335265 110.903,169.33906848335266 109.902,169.13506848335265 C85.6095,164.24306848335266 45.2904,128.33306848335266 14.9136,155.26506848335265 z" fill="#FFCFC9" id="svg_66" opacity="0.69"/>
<path d="M114.775,47.54016848335266 C134.544,40.15266848335266 141.199,27.27726848335266 141.199,27.27726848335266 L146.769,58.40756848335266 C146.769,58.40756848335266 143.016,60.54876848335266 144.283,69.43616848335266 C145.411,77.33526848335266 132.097,76.88316848335266 124.595,69.59386848335267 C115.951,61.193568483352664 114.775,47.54016848335266 114.775,47.54016848335266 z" fill="#FFCFC9" id="svg_67" opacity="0.69"/>
<path d="M146.769,58.40746848335266 C146.769,58.40746848335266 143.016,60.548668483352664 144.283,69.43606848335266 C144.377,69.91536848335267 144.372,70.40876848335266 144.269,70.88606848335266 C144.165,71.36336848335266 143.965,71.81446848335266 143.681,72.21166848335267 C137.73,69.08216848335266 131.208,60.783468483352664 132.521,48.73156848335266 C133.168,42.80546848335266 141.105,36.30116848335266 142.694,35.004568483352664 L146.769,58.40746848335266 z" fill="#FAB6AD" id="svg_68" opacity="0.69"/>
<path d="M140.937,35.37266848335266 C139.351,36.66936848335266 134.569,42.973968483352664 135.993,46.783268483352664 C138.364,53.09136848335266 150.697,67.29856848335267 155.598,65.57086848335265 C157.699,64.83136848335266 170.102,54.17426848335266 174.153,47.77506848335266 C175.665,45.39556848335266 182.691,29.825068483352663 179.054,26.84626848335266 C174.657,23.24716848335266 158.892,20.692468483352663 140.937,35.37266848335266 z" fill="#FFCFC9" id="svg_69" opacity="0.69"/>
<path d="M129.983,39.09096848335266 C132.122,40.39106848335266 138.357,36.96016848335266 148.187,32.611168483352664 C163.629,25.78796848335266 184.246,19.37826848335266 179.81,34.38436848335266 C179.81,34.38436848335266 182.586,29.47816848335266 182.59,23.870968483352662 C182.59,17.14586848335266 177.447,12.95096848335266 173.838,7.610168483352661 C169.391,1.0252384833526613 165.183,-1.8414215166473389 147.791,-0.25739951664733884 C130.399,1.326628483352661 121.962,7.0249184833526614 123.783,14.783868483352661 C125.603,22.54276848335266 131.908,26.600968483352663 131.908,26.600968483352663 C131.908,26.600968483352663 125.939,36.644768483352664 129.983,39.09096848335266 z" fill="#3F4D79" id="svg_70" opacity="0.69"/>
<path d="M131.582,26.236568483352663 C134.177,21.45986848335266 136.806,19.08386848335266 136.806,19.08386848335266 " stroke="white" stroke-width="3" stroke-miterlimit="10" id="svg_71" opacity="0.69"/>
</g></g></svg>