<svg width="384" height="433" viewBox="0 0 384 433" fill="none" xmlns="http://www.w3.org/2000/svg">
<g clip-path="url(#clip0_2_39)">
<path d="M178.924 259.581H60.8201C58.3646 259.581 56.374 261.573 56.374 264.031V276.202C56.374 278.66 58.3646 280.653 60.8201 280.653H178.924C181.38 280.653 183.37 278.66 183.37 276.202V264.031C183.37 261.573 181.38 259.581 178.924 259.581Z" fill="white" stroke="#FE7523" stroke-width="5" stroke-miterlimit="10"/>
<path d="M60.309 431.773L74.4523 284.445C74.7814 281.491 79.1155 281.526 79.399 284.483L95.0653 431.773" stroke="#3F4D79" stroke-width="6" stroke-miterlimit="10"/>
<path d="M141.178 431.773L155.322 284.445C155.651 281.491 159.985 281.526 160.268 284.483L175.935 431.773" stroke="#3F4D79" stroke-width="6" stroke-miterlimit="10"/>
<path d="M143.986 412.975H173.519" stroke="#3F4D79" stroke-width="6" stroke-miterlimit="10" stroke-linecap="round"/>
<path d="M91.9566 412.975H62.1749" stroke="#3F4D79" stroke-width="6" stroke-miterlimit="10" stroke-linecap="round"/>
<path d="M249.248 59.7724L254.326 62.4016C255.516 63.0178 256.413 64.082 256.819 65.36C257.225 66.6381 257.107 68.0253 256.492 69.2166L247.136 87.3234L233.096 80.0541L242.454 61.9441C243.069 60.756 244.129 59.8603 245.403 59.4532C246.676 59.0461 248.059 59.1609 249.248 59.7724Z" fill="#84D7EC" stroke="#3CBFD4" stroke-width="6" stroke-miterlimit="10"/>
<path d="M233.087 80.0454L247.138 87.3212L240.854 99.4827C240.348 100.463 239.472 101.203 238.421 101.537C237.37 101.872 236.229 101.775 235.25 101.268L228.586 97.8176C227.606 97.3103 226.868 96.4342 226.534 95.382C226.199 94.3297 226.296 93.1877 226.803 92.2069L233.087 80.0454Z" fill="white" stroke="#3CBFD4" stroke-width="6" stroke-miterlimit="10"/>
<path d="M230.369 85.3061L237.679 82.874" stroke="#3CBFD4" stroke-width="3" stroke-miterlimit="10"/>
<path d="M228.682 88.5722L241.393 84.3423" stroke="#3CBFD4" stroke-width="3" stroke-miterlimit="10"/>
<path d="M227.488 91.849L244.922 86.1682" stroke="#3CBFD4" stroke-width="3" stroke-miterlimit="10"/>
<path d="M226.84 95.1711L245.381 89.1294" stroke="#3CBFD4" stroke-width="3" stroke-miterlimit="10"/>
<path d="M228.402 97.7751L243.963 92.7041" stroke="#3CBFD4" stroke-width="3" stroke-miterlimit="10"/>
<path d="M231.931 99.6009L242.587 96.1279" stroke="#3CBFD4" stroke-width="3" stroke-miterlimit="10"/>
<path d="M383.629 22.7791L224.505 83.2209" stroke="#3F4D79" stroke-width="6" stroke-miterlimit="10"/>
<path d="M328.54 42.8213V426.874" stroke="#3F4D79" stroke-width="6" stroke-miterlimit="10"/>
<path d="M328.54 355.099L367.399 426.874" stroke="#3F4D79" stroke-width="6" stroke-miterlimit="10"/>
<path d="M328.19 355.099L292.831 426.874" stroke="#3F4D79" stroke-width="6" stroke-miterlimit="10"/>
<path d="M372.377 26.9214C372.153 30.3943 358.43 71.7262 303.176 55.0869C253.331 40.0772 244.092 76.5764 244.092 76.5764" stroke="#3F4D79" stroke-width="4" stroke-miterlimit="10"/>
<path d="M356.826 32.9595C346.982 36.6988 298.247 55.2129 328.54 166.34C357.481 272.526 335.566 323.341 328.19 353.886" stroke="#3F4D79" stroke-width="4" stroke-miterlimit="10"/>
<path d="M329.467 430.151C325.844 432.383 298.432 432.254 294.249 430.151C290.065 428.048 289.295 424.446 288.599 419.7C287.902 414.955 278.446 416.161 277.788 413.112C276.43 406.804 284.471 394.945 286.334 392.218C284.8 396.746 302.602 395.986 303.838 393.052C305.452 400.447 317.515 414.514 324.594 417.163C328.515 418.635 333.091 427.918 329.467 430.151Z" fill="#FFB000"/>
<path d="M277.788 414.864C277.788 414.864 285.703 416.021 287.898 420.054C290.191 424.26 290.069 428.059 294.249 430.151C298.429 432.243 326.894 432.383 330.518 430.151" stroke="#3F4D79" stroke-width="7" stroke-miterlimit="10" stroke-linecap="round"/>
<path d="M303.992 411.892C306.049 410.908 308.279 410.339 310.556 410.219C312.833 410.099 315.111 410.429 317.26 411.191" stroke="#3F4D79" stroke-width="7" stroke-miterlimit="10" stroke-linecap="round"/>
<path d="M300.841 406.285C300.841 406.285 304.674 402.648 312.009 405.234" stroke="#3F4D79" stroke-width="7" stroke-miterlimit="10" stroke-linecap="round"/>
<path d="M299.441 372.877L303.831 393.038C302.602 395.972 289.302 397.945 286.677 393.956C282.861 388.132 274.672 373.15 274.672 373.15L299.441 372.877Z" fill="#C36F0B"/>
<path d="M262.017 240.867C256.986 227.199 156.785 208.625 156.785 208.625L109.772 219.517C108.043 224.336 104.924 254.471 130.294 266.264C157.219 278.778 219.215 266.737 219.215 266.737C219.215 266.737 212.382 309.993 273.601 373.227H300.557C294.883 337.366 269.165 260.295 262.017 240.867Z" fill="#30456D"/>
<path d="M269.564 369.281C269.564 369.281 269.214 376.031 275.866 377.082C278.352 377.471 300.585 376.031 301.909 374.98C303.232 373.928 300.858 367.533 300.858 367.533C300.858 367.533 288.504 371.254 269.564 369.281Z" fill="#485784"/>
<path d="M212.539 430.151C208.916 432.383 183.255 432.254 179.071 430.151C174.888 428.048 175.868 424.446 175.171 419.701C174.475 414.955 166.328 409.537 165.772 406.464C165.772 406.464 168.436 395.52 177.107 390.466C175.574 394.994 191.976 395.986 193.211 393.052C194.913 402.96 201.897 417.374 208.366 418.916C212.438 419.89 216.163 427.919 212.539 430.151Z" fill="#FFB000"/>
<path d="M165.772 406.814C165.772 406.814 173.288 416.949 174.471 420.054C176.176 424.533 174.891 428.059 179.071 430.151C183.251 432.243 209.966 432.383 213.59 430.151" stroke="#3F4D79" stroke-width="7" stroke-miterlimit="10" stroke-linecap="round"/>
<path d="M188.814 411.892C188.814 411.892 193.698 407.904 201.032 410.491" stroke="#3F4D79" stroke-width="7" stroke-miterlimit="10" stroke-linecap="round"/>
<path d="M185.664 406.285C185.664 406.285 190.547 402.297 197.881 404.884" stroke="#3F4D79" stroke-width="7" stroke-miterlimit="10" stroke-linecap="round"/>
<path d="M196.516 372.877L193.204 393.038C191.976 395.972 177.619 396.96 177.1 392.204C176.561 387.193 174.898 373.15 174.898 373.15L196.516 372.877Z" fill="#C36F0B"/>
<path d="M218.865 247.928C212.175 223.099 130.294 216.276 130.294 216.276L58.1139 216.363C56.3845 221.182 53.2652 254.471 78.6358 266.264C105.557 278.778 161.606 271.766 161.606 271.766C161.606 271.766 149.93 328.29 173.228 373.227H204.501C198.82 337.366 224.25 267.918 218.865 247.928Z" fill="#3F4D79"/>
<path d="M170.141 367.529C170.141 367.529 168.39 376.031 175.042 377.082C177.528 377.471 202.912 376.381 204.235 375.33C205.559 374.279 204.585 366.481 204.585 366.481C204.585 366.481 189.08 369.502 170.141 367.529Z" fill="#4E628C"/>
<path d="M156.796 208.335C156.796 208.335 152.097 217.229 121.322 216.833C125.067 194.877 131.562 155.732 131.428 142.366C131.236 123.603 131.127 80.1512 126.31 71.9858L126.09 71.6949L144.21 70.1284C144.518 71.7405 144.823 72.897 144.823 72.897C144.823 72.897 159.575 106.312 154.499 143.554C148.198 189.792 156.796 208.335 156.796 208.335Z" fill="white"/>
<path d="M109.524 49.9775C105.673 50.6469 57.5747 64.9592 49.9464 68.1343C33.0969 75.1467 13.4152 125.979 1.34778 151.653L45.6999 149.379C45.6999 149.379 61.4537 122.902 62.5774 122.902C63.7012 122.902 65.1716 172.684 61.7652 182.917C58.3589 193.15 46.4316 211.342 45.4828 217.961C45.4828 217.961 64.4154 231.979 118.745 232.551C118.745 232.551 131.617 161.112 131.428 142.349C131.239 123.586 131.127 80.1371 126.31 71.9717L109.524 49.9775Z" fill="#DAF3F9"/>
<path d="M145.467 60.5155C146.822 60.3052 149.601 65.9019 167.585 71.5862C185.569 77.2705 211.125 147.392 211.125 147.392L173.554 158.305C173.554 158.305 168.908 175.091 182.744 213.938C182.744 213.938 161.161 211.377 156.81 209.291C156.81 209.291 148.211 189.792 154.513 143.554C159.575 106.312 144.823 72.8933 144.823 72.8933C144.823 72.8933 141.71 61.0973 145.467 60.5155Z" fill="#DAF3F9"/>
<path d="M173.263 100.768C173.263 100.768 180.087 120.67 173.263 157.891" stroke="#AEE5F2" stroke-width="4" stroke-miterlimit="10"/>
<path d="M114.638 48.1412C114.638 48.1412 113.634 42.1836 115.146 40.0809C116.658 37.9782 130.333 39.7795 130.333 39.7795C130.333 39.7795 121.321 46.0105 114.638 48.1412Z" fill="#AEE5F2"/>
<path d="M152.125 76.1035L144.207 69.1611C144.207 69.1611 143.58 57.6243 145.467 60.5155C147.802 64.0936 155.017 66.5432 155.017 66.5432L152.125 76.1035Z" fill="white"/>
<path d="M151.761 76.1035L143.842 69.1611" stroke="#AEE5F2" stroke-width="4" stroke-miterlimit="10"/>
<path d="M115.146 40.0774C113.256 42.3097 114.012 59.1943 126.023 71.6983L114.771 78.3148C114.771 78.3148 94.344 54.649 96.9731 52.5113C105.494 45.5759 115.146 40.0774 115.146 40.0774Z" fill="white"/>
<path d="M126.023 72.0627L114.771 78.6757" stroke="#AEE5F2" stroke-width="4" stroke-miterlimit="10"/>
<path d="M182.656 173.426C182.656 173.426 163.839 166.813 174.926 148.72C182.789 135.904 208.405 135.876 212.329 147.164C215.302 155.736 207.089 174.39 182.656 173.426Z" fill="#AEE5F2"/>
<path d="M192.168 152.897C182.607 155.483 174.835 168.236 179.964 172.172C189.217 179.254 209.543 181.283 241.39 163.694C251.245 158.238 234.437 147.188 234.437 147.188L192.168 152.897Z" fill="#FAB6AD"/>
<path d="M109.153 243.653C80.7959 252.716 50.2931 236.416 40.9878 207.252C31.6826 178.088 47.1073 147.094 75.4466 138.031C86.4243 134.517 98.251 134.706 109.111 138.571C121.679 143.001 135.272 140.435 145.498 132.168C149.369 129.045 153.784 126.669 158.521 125.159C180.199 118.228 200.36 131.713 207.477 154.019C214.594 176.325 205.979 199.009 184.302 205.941C179.566 207.461 174.59 208.086 169.626 207.785C156.508 206.982 143.94 212.782 136.27 223.684C129.658 233.132 120.131 240.147 109.153 243.653Z" fill="white" stroke="#3CBFD4" stroke-width="6" stroke-miterlimit="10"/>
<path d="M130.109 194.159C139.318 194.159 146.783 186.686 146.783 177.467C146.783 168.249 139.318 160.775 130.109 160.775C120.9 160.775 113.434 168.249 113.434 177.467C113.434 186.686 120.9 194.159 130.109 194.159Z" fill="#3CBFD4"/>
<path d="M97.5031 174.715L94.1975 175.961C93.3543 176.279 92.9282 177.221 93.2458 178.065L102.823 203.518C103.141 204.362 104.082 204.788 104.925 204.471L108.23 203.224C109.074 202.906 109.5 201.964 109.182 201.12L99.6048 175.668C99.2872 174.824 98.3462 174.397 97.5031 174.715Z" fill="#3CBFD4"/>
<path d="M279.49 127.308L156.985 180.576C155.052 181.445 152.217 181.718 151.135 178.841L145.236 163.176C144.154 160.299 145.912 159.321 147.935 158.708L275.656 117.124L279.49 127.308Z" fill="#FFB000"/>
<path d="M94.7818 187.371C93.7 184.497 95.1319 181.329 97.9325 180.411L275.866 119.633" stroke="white" stroke-width="3" stroke-miterlimit="10"/>
<path d="M96.8473 192.859C95.762 189.982 97.1974 186.814 99.9981 185.896L276.685 121.89" stroke="white" stroke-width="3" stroke-miterlimit="10"/>
<path d="M97.4319 194.415C98.5136 197.292 101.685 198.718 104.402 197.569L278.135 125.727" stroke="white" stroke-width="3" stroke-miterlimit="10"/>
<path d="M95.2473 188.608C96.3291 191.485 99.4973 192.911 102.214 191.762L277.287 123.453" stroke="white" stroke-width="3" stroke-miterlimit="10"/>
<path d="M322.032 111.492L280.561 132.168C280.189 132.353 279.779 132.449 279.364 132.447C278.949 132.446 278.54 132.347 278.169 132.159C277.799 131.971 277.478 131.699 277.231 131.365C276.984 131.031 276.819 130.643 276.748 130.234L273.969 113.997C273.854 113.321 274.004 112.627 274.387 112.058C274.77 111.49 275.358 111.091 276.027 110.945L305.851 104.441C307.297 104.126 308.802 104.223 310.195 104.721L321.881 108.902C322.144 108.992 322.374 109.159 322.542 109.38C322.71 109.602 322.808 109.869 322.824 110.146C322.84 110.424 322.774 110.7 322.633 110.94C322.491 111.179 322.282 111.371 322.032 111.492Z" fill="white" stroke="#3CBFD4" stroke-width="6" stroke-miterlimit="10"/>
<path d="M282.716 106.251C284.135 105.468 285.026 104.361 284.705 103.778C284.384 103.195 282.973 103.357 281.554 104.139C280.135 104.922 279.245 106.029 279.565 106.612C279.886 107.195 281.297 107.034 282.716 106.251Z" fill="white" stroke="#FE7523" stroke-width="5" stroke-miterlimit="10"/>
<path d="M293.046 103.89C294.413 103.019 295.231 101.858 294.874 101.296C294.517 100.734 293.119 100.985 291.752 101.857C290.386 102.728 289.567 103.889 289.925 104.451C290.282 105.013 291.679 104.762 293.046 103.89Z" fill="white" stroke="#FE7523" stroke-width="5" stroke-miterlimit="10"/>
<path d="M302.918 101.558C304.285 100.687 305.103 99.5253 304.746 98.9637C304.388 98.4021 302.991 98.6531 301.624 99.5243C300.258 100.396 299.439 101.557 299.797 102.119C300.154 102.68 301.551 102.429 302.918 101.558Z" fill="white" stroke="#FE7523" stroke-width="5" stroke-miterlimit="10"/>
<path d="M290.578 131.618C291.939 130.742 292.751 129.579 292.392 129.02C292.032 128.46 290.638 128.717 289.277 129.593C287.916 130.469 287.104 131.632 287.463 132.191C287.822 132.751 289.217 132.494 290.578 131.618Z" fill="white" stroke="#FE7523" stroke-width="4.993" stroke-miterlimit="10"/>
<path d="M301.463 127.746C302.829 126.875 303.648 125.714 303.29 125.152C302.933 124.59 301.535 124.841 300.169 125.713C298.802 126.584 297.984 127.745 298.341 128.307C298.698 128.868 300.096 128.617 301.463 127.746Z" fill="white" stroke="#FE7523" stroke-width="5" stroke-miterlimit="10"/>
<path d="M312.849 122.06C314.216 121.189 315.034 120.028 314.677 119.466C314.32 118.905 312.922 119.156 311.556 120.027C310.189 120.898 309.371 122.06 309.728 122.621C310.085 123.183 311.483 122.932 312.849 122.06Z" fill="white" stroke="#FE7523" stroke-width="5" stroke-miterlimit="10"/>
<path d="M241.39 163.684C244.807 161.932 254.956 148.709 255.82 145.17C256.685 141.63 256.895 127.766 256.479 126.628C256.062 125.489 251.885 122.475 251.885 122.475C251.885 122.475 247.94 120.877 244.653 120.67C244.653 120.67 243.658 123.852 246.967 125.927C246.967 125.927 248.329 134.604 247.18 135.389C245.727 136.384 244.579 130.64 243.483 127.791C242.783 126.039 237.952 128.359 237.903 129.519C237.862 130.123 237.901 130.73 238.019 131.324C238.019 131.324 235.144 132.519 234.413 133.854C233.681 135.189 231.612 151.187 234.133 156.055C236.653 160.922 241.39 163.684 241.39 163.684Z" fill="#FFCFC9"/>
<path d="M237.802 132.161C237.868 133.079 238.771 137.12 238.771 137.12" stroke="#FAB6AD" stroke-width="3" stroke-miterlimit="10" stroke-linecap="round"/>
<path d="M251.182 122.941C252.817 123.642 253.331 133.307 253.331 133.307" stroke="#FAB6AD" stroke-width="3" stroke-miterlimit="10" stroke-linecap="round"/>
<path d="M47.3244 146.442C36.0587 145.009 24.947 147.048 14.9171 155.95C13.3697 157.323 6.20351 165.923 10.6601 172.95C10.485 173.244 10.31 173.539 10.149 173.84C10.149 173.84 -7.56879 161.136 3.81944 145.979C12.8516 133.959 37.263 136.135 44.3732 141.269C46.5612 142.832 47.1598 145.24 47.3244 146.442Z" fill="#AEE5F2"/>
<path d="M14.9136 155.95C12.463 158.112 -3.89641 178.214 33.1635 181.837C70.2233 185.461 107.623 182.233 109.258 182.934C110.893 183.635 122.522 190.01 126.646 189.414C130.77 188.818 144.06 185.559 144.501 183.951C144.942 182.342 149.664 166.19 149.664 166.19C149.664 166.19 145.386 164.788 142.761 169.403C139.788 174.622 129.272 177.159 125.652 174.622C122.032 172.084 131.681 171.45 133.746 169.81C135.812 168.17 135.976 167.133 135.976 167.133C135.976 167.133 128.537 165.587 125.824 164.641C123.11 163.695 110.903 170.024 109.902 169.82C85.6095 164.928 45.2904 129.018 14.9136 155.95Z" fill="#FFCFC9"/>
<path d="M114.775 48.2251C134.544 40.8376 141.199 27.9622 141.199 27.9622L146.769 59.0925C146.769 59.0925 143.016 61.2337 144.283 70.1211C145.411 78.0202 132.097 77.5681 124.595 70.2788C115.951 61.8785 114.775 48.2251 114.775 48.2251Z" fill="#FFCFC9"/>
<path d="M146.769 59.0924C146.769 59.0924 143.016 61.2336 144.283 70.121C144.377 70.6003 144.372 71.0937 144.269 71.571C144.165 72.0483 143.965 72.4994 143.681 72.8966C137.73 69.7671 131.208 61.4684 132.521 49.4165C133.168 43.4904 141.105 36.9861 142.694 35.6895L146.769 59.0924Z" fill="#FAB6AD"/>
<path d="M140.937 36.0576C139.351 37.3543 134.569 43.6589 135.993 47.4682C138.364 53.7763 150.697 67.9835 155.598 66.2558C157.699 65.5163 170.102 54.8592 174.153 48.46C175.665 46.0805 182.691 30.51 179.054 27.5312C174.657 23.9321 158.892 21.3774 140.937 36.0576Z" fill="#FFCFC9"/>
<path d="M129.983 39.7759C132.122 41.076 138.357 37.6451 148.187 33.2961C163.629 26.4729 184.246 20.0632 179.81 35.0693C179.81 35.0693 182.586 30.1631 182.59 24.5559C182.59 17.8308 177.447 13.6359 173.838 8.2951C169.391 1.71017 165.183 -1.15649 147.791 0.427532C130.399 2.01156 121.962 7.70985 123.783 15.4688C125.603 23.2277 131.908 27.2859 131.908 27.2859C131.908 27.2859 125.939 37.3297 129.983 39.7759Z" fill="#3F4D79"/>
<path d="M131.582 26.9215C134.177 22.1448 136.806 19.7688 136.806 19.7688" stroke="white" stroke-width="3" stroke-miterlimit="10"/>
</g>
<defs>
<clipPath id="clip0_2_39">
<rect width="384" height="433" fill="white"/>
</clipPath>
</defs>
</svg>
