<svg width="37" height="37" viewBox="0 0 37 37" fill="none" xmlns="http://www.w3.org/2000/svg">
<path d="M32.0314 20.7384C31.8017 20.4963 31.5255 20.3039 31.2198 20.173C30.9141 20.042 30.5852 19.9751 30.2531 19.9764C29.604 19.9415 28.9794 19.7145 28.4572 19.3236C27.9351 18.9327 27.5386 18.3953 27.3171 17.7784C27.1076 17.2576 26.9767 16.7081 26.9288 16.1482C27.2965 15.7251 27.5619 15.2218 27.7042 14.6776C27.8466 14.1335 27.8619 13.5634 27.749 13.0123C27.6489 12.4514 27.4134 11.9239 27.0634 11.4767C26.7133 11.0294 26.2595 10.6761 25.742 10.448C25.4056 10.3044 25.0516 10.2071 24.6895 10.1586V6.77728C24.6896 6.70418 24.6751 6.63182 24.6471 6.56442C24.6191 6.49702 24.578 6.43595 24.5263 6.38478C24.4746 6.33361 24.4133 6.29336 24.3459 6.2664C24.2786 6.23944 24.2067 6.22631 24.1343 6.22777H5.98823C5.84385 6.22777 5.70538 6.28567 5.60329 6.38872C5.5012 6.49177 5.44385 6.63154 5.44385 6.77728V30.2228C5.44385 30.3686 5.5012 30.5083 5.60329 30.6114C5.70538 30.7144 5.84385 30.7723 5.98823 30.7723H24.1343C24.2787 30.7723 24.4171 30.7144 24.5192 30.6114C24.6213 30.5083 24.6787 30.3686 24.6787 30.2228V26.7426H31.0298C31.1742 26.7426 31.3126 26.6847 31.4147 26.5817C31.5168 26.4786 31.5742 26.3389 31.5742 26.1931V24.9109H32.1185C32.2629 24.9109 32.4014 24.853 32.5035 24.75C32.6056 24.6469 32.6629 24.5072 32.6629 24.3614V22.5298C32.6859 22.2033 32.6416 21.8756 32.5329 21.5673C32.4243 21.259 32.2535 20.9768 32.0314 20.7384ZM23.5899 29.6733H6.53261V7.32678H23.5899V10.1769C22.7396 10.3088 21.9641 10.7431 21.4031 11.4014C20.8421 12.0597 20.5326 12.8986 20.5305 13.767C20.5371 14.6397 20.8495 15.4819 21.4124 16.1445C21.3524 16.743 21.2132 17.3307 20.9986 17.8919C20.0224 20.1193 18.2041 20.0203 18.1279 20.013H18.0808C17.4272 20.012 16.7998 20.2724 16.3359 20.7372C15.8721 21.202 15.6095 21.8334 15.6056 22.4931V24.3614C15.6056 24.5072 15.663 24.6469 15.7651 24.75C15.8672 24.853 16.0056 24.9109 16.15 24.9109H16.3315V26.1931C16.3315 26.3389 16.3888 26.4786 16.4909 26.5817C16.593 26.6847 16.7315 26.7426 16.8759 26.7426H23.5899V29.6733ZM30.4854 25.6436H17.4202V24.9109H30.4854V25.6436ZM31.5742 23.8119H16.6944V22.4931C16.6973 22.1271 16.8428 21.7769 17.0996 21.5184C17.3563 21.26 17.7036 21.1139 18.0662 21.112C18.3783 21.112 20.7519 21.167 21.993 18.3389C22.2811 17.5886 22.4596 16.8001 22.5229 15.998C22.5288 15.9211 22.5185 15.8439 22.4929 15.7714C22.4673 15.6988 22.4268 15.6324 22.3741 15.5767C21.9025 15.0934 21.6334 14.4453 21.6229 13.767C21.6237 13.3472 21.728 12.9342 21.9263 12.5652C22.1246 12.1963 22.4107 11.8828 22.7588 11.6532C23.1332 11.4103 23.562 11.2663 24.0059 11.2343C24.4498 11.2023 24.8945 11.2834 25.2992 11.47C25.6513 11.6264 25.9597 11.868 26.1972 12.1734C26.4346 12.4789 26.5936 12.8388 26.6602 13.2211C26.7516 13.6369 26.7373 14.0692 26.6186 14.4778C26.5 14.8865 26.2808 15.2582 25.9815 15.5584C25.9254 15.6118 25.8812 15.6767 25.8518 15.7487C25.8224 15.8207 25.8085 15.8982 25.811 15.976C25.8474 16.7522 26.0143 17.5165 26.3045 18.2363C26.6087 19.0526 27.1466 19.7591 27.8497 20.266C28.5529 20.7729 29.3895 21.0572 30.2531 21.0827C30.4362 21.0812 30.6178 21.1171 30.7868 21.1882C30.9558 21.2593 31.1088 21.3643 31.2366 21.4967C31.3582 21.6301 31.451 21.7876 31.5091 21.9591C31.5672 22.1306 31.5894 22.3125 31.5742 22.4931V23.8119Z" fill="black"/>
<path d="M14.3355 10.9901H8.52876C8.38438 10.9901 8.24591 11.048 8.14382 11.1511C8.04173 11.2541 7.98438 11.3939 7.98438 11.5396C7.98438 11.6854 8.04173 11.8251 8.14382 11.9282C8.24591 12.0312 8.38438 12.0891 8.52876 12.0891H14.3355C14.4799 12.0891 14.6183 12.0312 14.7204 11.9282C14.8225 11.8251 14.8799 11.6854 14.8799 11.5396C14.8799 11.3939 14.8225 11.2541 14.7204 11.1511C14.6183 11.048 14.4799 10.9901 14.3355 10.9901Z" fill="black"/>
<path d="M14.3355 13.5544H8.52876C8.38438 13.5544 8.24591 13.6123 8.14382 13.7154C8.04173 13.8184 7.98438 13.9582 7.98438 14.1039C7.98438 14.2497 8.04173 14.3895 8.14382 14.4925C8.24591 14.5956 8.38438 14.6535 8.52876 14.6535H14.3355C14.4799 14.6535 14.6183 14.5956 14.7204 14.4925C14.8225 14.3895 14.8799 14.2497 14.8799 14.1039C14.8799 13.9582 14.8225 13.8184 14.7204 13.7154C14.6183 13.6123 14.4799 13.5544 14.3355 13.5544Z" fill="black"/>
<path d="M14.3355 16.1188H8.52876C8.38438 16.1188 8.24591 16.1767 8.14382 16.2797C8.04173 16.3828 7.98438 16.5225 7.98438 16.6683C7.98438 16.814 8.04173 16.9538 8.14382 17.0568C8.24591 17.1599 8.38438 17.2178 8.52876 17.2178H14.3355C14.4799 17.2178 14.6183 17.1599 14.7204 17.0568C14.8225 16.9538 14.8799 16.814 14.8799 16.6683C14.8799 16.5225 14.8225 16.3828 14.7204 16.2797C14.6183 16.1767 14.4799 16.1188 14.3355 16.1188Z" fill="black"/>
</svg>
