<svg width="25" height="25" viewBox="0 0 25 25" fill="none" xmlns="http://www.w3.org/2000/svg">
<path d="M8.82227 7.99976C5.76749 7.99976 1 7.99976 1 7.99976V23.9999H17.0001C17.0001 23.9999 17.0001 19.124 17.0001 15.9998" stroke="black"/>
<mask id="path-2-inside-1_79_226" fill="white">
<path d="M9.08331 15.9171C9.1938 16.0276 9.37275 16.0276 9.48324 15.9171L11.7954 15.0881L15.546 13.7602C15.6126 13.7545 15.6748 13.7255 15.7219 13.6783L22.2831 7.11715C22.3936 7.00684 22.3936 6.82752 22.2831 6.71721L22.083 6.51715L24.9176 3.6825C24.9755 3.6248 25.0053 3.54485 24.9998 3.46321C24.9416 2.61242 24.545 1.77916 23.883 1.11731C23.2214 0.455461 22.3883 0.0589161 21.5371 0.000462532C21.5307 8.4877e-05 21.5243 -0.000102997 21.5177 -0.000102997C21.443 -0.000102997 21.371 0.0295 21.3176 0.082674L18.483 2.91732L18.283 2.71726C18.2277 2.66201 18.1553 2.63448 18.0829 2.63448C18.0105 2.63448 17.9381 2.66201 17.8828 2.71726L11.3217 9.27844C11.2746 9.32558 11.2455 9.388 11.2399 9.45437L9.75612 13.5041L9.08293 15.5172C8.97281 15.6275 8.97281 15.8068 9.08331 15.9171ZM21.6241 0.576329C22.2953 0.654205 22.9511 0.98513 23.4831 1.51725C24.0152 2.04956 24.3463 2.70538 24.424 3.37628L21.6831 6.11721L18.883 3.31707L21.6241 0.576329ZM18.0833 3.31726L21.6833 6.91728L15.3952 13.2054L10.3218 15.0881H9.94468C9.94468 15.0881 9.95091 14.7163 9.94468 14.711L11.7954 9.6056L18.0833 3.31726Z"/>
</mask>
<path d="M9.08331 15.9171C9.1938 16.0276 9.37275 16.0276 9.48324 15.9171L11.7954 15.0881L15.546 13.7602C15.6126 13.7545 15.6748 13.7255 15.7219 13.6783L22.2831 7.11715C22.3936 7.00684 22.3936 6.82752 22.2831 6.71721L22.083 6.51715L24.9176 3.6825C24.9755 3.6248 25.0053 3.54485 24.9998 3.46321C24.9416 2.61242 24.545 1.77916 23.883 1.11731C23.2214 0.455461 22.3883 0.0589161 21.5371 0.000462532C21.5307 8.4877e-05 21.5243 -0.000102997 21.5177 -0.000102997C21.443 -0.000102997 21.371 0.0295 21.3176 0.082674L18.483 2.91732L18.283 2.71726C18.2277 2.66201 18.1553 2.63448 18.0829 2.63448C18.0105 2.63448 17.9381 2.66201 17.8828 2.71726L11.3217 9.27844C11.2746 9.32558 11.2455 9.388 11.2399 9.45437L9.75612 13.5041L9.08293 15.5172C8.97281 15.6275 8.97281 15.8068 9.08331 15.9171ZM21.6241 0.576329C22.2953 0.654205 22.9511 0.98513 23.4831 1.51725C24.0152 2.04956 24.3463 2.70538 24.424 3.37628L21.6831 6.11721L18.883 3.31707L21.6241 0.576329ZM18.0833 3.31726L21.6833 6.91728L15.3952 13.2054L10.3218 15.0881H9.94468C9.94468 15.0881 9.95091 14.7163 9.94468 14.711L11.7954 9.6056L18.0833 3.31726Z" fill="black"/>
<path d="M9.08331 15.9171L10.4975 14.5029L10.4963 14.5017L9.08331 15.9171ZM9.48324 15.9171L8.80823 14.0345L8.38611 14.1858L8.06902 14.5029L9.48324 15.9171ZM11.7954 15.0881L11.1278 13.2028L11.1204 13.2055L11.7954 15.0881ZM15.546 13.7602L15.3767 11.7674L15.1207 11.7891L14.8785 11.8749L15.546 13.7602ZM15.7219 13.6783L14.3077 12.2641L15.7219 13.6783ZM22.2831 7.11715L20.8701 5.70174L20.8689 5.70294L22.2831 7.11715ZM22.2831 6.71721L20.8689 8.13142L20.8701 8.13263L22.2831 6.71721ZM22.083 6.51715L20.6688 5.10294L19.2546 6.51715L20.6688 7.93136L22.083 6.51715ZM24.9176 3.6825L23.5057 2.26599L23.5034 2.26829L24.9176 3.6825ZM24.9998 3.46321L26.9954 3.32956L26.9952 3.32656L24.9998 3.46321ZM23.883 1.11731L22.4686 2.53132L22.469 2.53172L23.883 1.11731ZM21.5371 0.000462532L21.6742 -1.99484L21.6644 -1.99551L21.6546 -1.99609L21.5371 0.000462532ZM21.3176 0.082674L19.9059 -1.33404L19.9034 -1.33153L21.3176 0.082674ZM18.483 2.91732L17.0688 4.33153L18.483 5.74576L19.8972 4.33153L18.483 2.91732ZM18.283 2.71726L19.6972 1.30305L19.6972 1.30305L18.283 2.71726ZM17.8828 2.71726L16.4686 1.30305L17.8828 2.71726ZM11.3217 9.27844L12.7359 10.6927L11.3217 9.27844ZM11.2399 9.45437L13.1178 10.1424L13.2099 9.891L13.2326 9.62421L11.2399 9.45437ZM9.75612 13.5041L7.8782 12.8161L7.8684 12.8428L7.85937 12.8698L9.75612 13.5041ZM9.08293 15.5172L10.4984 16.9302L10.8306 16.5974L10.9797 16.1515L9.08293 15.5172ZM21.6241 0.576329L21.8545 -1.41035L20.8938 -1.5218L20.2099 -0.837976L21.6241 0.576329ZM23.4831 1.51725L22.0686 2.93121H22.0686L23.4831 1.51725ZM24.424 3.37628L25.8382 4.79049L26.5219 4.10675L26.4107 3.14623L24.424 3.37628ZM21.6831 6.11721L20.2689 7.53142L21.6831 8.94565L23.0973 7.53142L21.6831 6.11721ZM18.883 3.31707L17.4688 1.90276L16.0544 3.31697L17.4687 4.73128L18.883 3.31707ZM18.0833 3.31726L19.4975 1.90305L18.0832 0.488777L16.669 1.90309L18.0833 3.31726ZM21.6833 6.91728L23.0975 8.33148L24.5117 6.91728L23.0975 5.50307L21.6833 6.91728ZM15.3952 13.2054L16.091 15.0805L16.5005 14.9285L16.8094 14.6196L15.3952 13.2054ZM10.3218 15.0881V17.0881H10.6809L11.0176 16.9632L10.3218 15.0881ZM9.94468 15.0881L7.94497 15.0547L7.91094 17.0881H9.94468V15.0881ZM9.94468 14.711L8.06441 14.0294L7.5906 15.3365L8.65072 16.236L9.94468 14.711ZM11.7954 9.6056L10.3811 8.19143L10.0666 8.50591L9.91509 8.92401L11.7954 9.6056ZM7.66909 17.3313C8.56063 18.2229 10.0059 18.2229 10.8975 17.3313L8.06902 14.5029C8.73958 13.8324 9.82697 13.8324 10.4975 14.5029L7.66909 17.3313ZM10.1583 17.7998L12.4704 16.9708L11.1204 13.2055L8.80823 14.0345L10.1583 17.7998ZM12.4629 16.9734L16.2135 15.6455L14.8785 11.8749L11.1278 13.2028L12.4629 16.9734ZM15.7154 15.753C16.2539 15.7072 16.7566 15.4721 17.1362 15.0925L14.3077 12.2641C14.593 11.9788 14.9712 11.8018 15.3767 11.7674L15.7154 15.753ZM17.1362 15.0925L23.6973 8.53136L20.8689 5.70294L14.3077 12.2641L17.1362 15.0925ZM23.6961 8.53257C24.5892 7.64093 24.5892 6.19343 23.6961 5.3018L20.8701 8.13263C20.1979 7.46161 20.1979 6.37275 20.8701 5.70174L23.6961 8.53257ZM23.6973 5.303L23.4972 5.10294L20.6688 7.93136L20.8689 8.13142L23.6973 5.303ZM23.4972 7.93136L26.3319 5.09671L23.5034 2.26829L20.6688 5.10294L23.4972 7.93136ZM26.3295 5.09902C26.8009 4.62924 27.0391 3.98233 26.9954 3.32956L23.0043 3.59685C22.9715 3.10737 23.1502 2.62037 23.5057 2.26599L26.3295 5.09902ZM26.9952 3.32656C26.9006 1.94549 26.2651 0.670739 25.297 -0.297098L22.469 2.53172C22.825 2.88758 22.9826 3.27934 23.0045 3.59985L26.9952 3.32656ZM25.2974 -0.296696C24.3297 -1.26468 23.0553 -1.89999 21.6742 -1.99484L21.4001 1.99576C21.7213 2.01782 22.113 2.1756 22.4686 2.53132L25.2974 -0.296696ZM21.6546 -1.99609C21.6085 -1.9988 21.5629 -2.0001 21.5177 -2.0001L21.5177 1.9999C21.4857 1.9999 21.4529 1.99897 21.4197 1.99701L21.6546 -1.99609ZM21.5177 -2.0001C20.9142 -2.0001 20.3344 -1.76102 19.9059 -1.33403L22.7294 1.49938C22.4076 1.82002 21.9719 1.9999 21.5177 1.9999L21.5177 -2.0001ZM19.9034 -1.33153L17.0688 1.50311L19.8972 4.33153L22.7319 1.49688L19.9034 -1.33153ZM19.8972 1.50311L19.6972 1.30305L16.8687 4.13146L17.0688 4.33153L19.8972 1.50311ZM19.6972 1.30305C19.2506 0.856495 18.6623 0.634478 18.0829 0.634478V4.63448C17.6483 4.63448 17.2048 4.46752 16.8687 4.13146L19.6972 1.30305ZM18.0829 0.634478C17.5035 0.634478 16.9152 0.856495 16.4686 1.30305L19.2971 4.13146C18.961 4.46752 18.5175 4.63448 18.0829 4.63448V0.634478ZM16.4686 1.30305L9.90748 7.86423L12.7359 10.6927L19.2971 4.13146L16.4686 1.30305ZM9.90748 7.86423C9.52717 8.24455 9.29286 8.74755 9.24709 9.28453L13.2326 9.62421C13.1982 10.0284 13.022 10.4066 12.7359 10.6927L9.90748 7.86423ZM9.36194 8.76634L7.8782 12.8161L11.6341 14.1921L13.1178 10.1424L9.36194 8.76634ZM7.85937 12.8698L7.18618 14.8829L10.9797 16.1515L11.6529 14.1384L7.85937 12.8698ZM7.6675 14.1042C6.77755 14.9957 6.77755 16.4413 7.67029 17.3325L10.4963 14.5017C11.1681 15.1723 11.1681 16.2593 10.4984 16.9302L7.6675 14.1042ZM21.3936 2.563C21.5686 2.5833 21.8193 2.68179 22.0686 2.93121L24.8975 0.103293C24.083 -0.711529 23.0221 -1.27489 21.8545 -1.41035L21.3936 2.563ZM22.0686 2.93121C22.3189 3.1816 22.4171 3.43255 22.4373 3.60633L26.4107 3.14623C26.2755 1.9782 25.7115 0.917515 24.8975 0.103292L22.0686 2.93121ZM23.0098 1.96207L20.2689 4.703L23.0973 7.53142L25.8382 4.79049L23.0098 1.96207ZM23.0973 4.703L20.2972 1.90286L17.4687 4.73128L20.2689 7.53142L23.0973 4.703ZM20.2971 4.73138L23.0382 1.99063L20.2099 -0.837976L17.4688 1.90276L20.2971 4.73138ZM16.6691 4.73147L20.269 8.33148L23.0975 5.50307L19.4975 1.90305L16.6691 4.73147ZM20.269 5.50307L13.9809 11.7912L16.8094 14.6196L23.0975 8.33148L20.269 5.50307ZM14.6993 11.3304L9.62598 13.2131L11.0176 16.9632L16.091 15.0805L14.6993 11.3304ZM10.3218 13.0881H9.94468V17.0881H10.3218V13.0881ZM9.94468 15.0881C11.9444 15.1216 11.9444 15.1216 11.9444 15.1216C11.9444 15.1215 11.9444 15.1215 11.9444 15.1215C11.9444 15.1215 11.9444 15.1214 11.9444 15.1214C11.9444 15.1213 11.9444 15.1212 11.9444 15.1211C11.9444 15.1208 11.9444 15.1204 11.9444 15.12C11.9444 15.1191 11.9445 15.1178 11.9445 15.1163C11.9445 15.1132 11.9446 15.1087 11.9447 15.1032C11.9449 15.0921 11.9451 15.0765 11.9454 15.0578C11.9459 15.0207 11.9465 14.97 11.9469 14.9182C11.9474 14.8687 11.9477 14.8084 11.9472 14.7558C11.9471 14.7326 11.9466 14.6922 11.9449 14.6491C11.9442 14.6325 11.9422 14.5822 11.9361 14.5204C11.9337 14.4958 11.926 14.4189 11.9068 14.3224C11.898 14.2783 11.8761 14.174 11.8311 14.0463C11.8223 14.0213 11.6805 13.5609 11.2386 13.186L8.65072 16.236C8.39226 16.0167 8.25269 15.7847 8.19239 15.675C8.12319 15.5492 8.08151 15.441 8.05882 15.3767C8.01398 15.2495 7.99225 15.1459 7.98365 15.1027C7.96482 15.008 7.95743 14.9334 7.95531 14.9118C7.94983 14.8561 7.94829 14.8142 7.94806 14.8084C7.94719 14.7866 7.94728 14.7761 7.94738 14.7885C7.94753 14.8071 7.94745 14.8407 7.94709 14.8849C7.94674 14.9267 7.94621 14.9693 7.94575 15.0021C7.94553 15.0184 7.94533 15.0318 7.94518 15.0411C7.94511 15.0457 7.94505 15.0493 7.94501 15.0516C7.945 15.0528 7.94498 15.0536 7.94497 15.0541C7.94497 15.0544 7.94497 15.0546 7.94497 15.0547C7.94496 15.0547 7.94496 15.0547 7.94496 15.0547C7.94496 15.0547 7.94496 15.0547 7.94496 15.0547C7.94496 15.0547 7.94496 15.0547 7.94497 15.0547C7.94497 15.0547 7.94497 15.0547 9.94468 15.0881ZM11.825 15.3926L13.6756 10.2872L9.91509 8.92401L8.06441 14.0294L11.825 15.3926ZM13.2096 11.0198L19.4975 4.73142L16.669 1.90309L10.3811 8.19143L13.2096 11.0198Z" fill="black" mask="url(#path-2-inside-1_79_226)"/>
</svg>
