<svg width="500" height="500" viewBox="0 0 500 500" fill="none" xmlns="http://www.w3.org/2000/svg">
<rect width="500" height="500" rx="250" fill="black"/>
<path d="M153.856 252.816C152.576 252.816 151.28 252.672 149.968 252.384C148.688 252.128 147.504 251.744 146.416 251.232C145.36 250.72 144.512 250.112 143.872 249.408C143.232 248.672 142.912 247.856 142.912 246.96V241.824H143.776C144.32 245.056 145.376 247.376 146.944 248.784C148.544 250.192 150.704 250.896 153.424 250.896C154.512 250.896 155.536 250.72 156.496 250.368C157.456 249.984 158.224 249.424 158.8 248.688C159.408 247.952 159.712 247.056 159.712 246C159.712 244.592 159.264 243.392 158.368 242.4C157.504 241.408 156.192 240.4 154.432 239.376L148.528 235.872C146.48 234.656 145.024 233.424 144.16 232.176C143.328 230.928 142.912 229.408 142.912 227.616C142.912 225.152 143.76 223.184 145.456 221.712C147.184 220.208 149.44 219.456 152.224 219.456C153.408 219.456 154.608 219.584 155.824 219.84C157.04 220.096 158.16 220.48 159.184 220.992C160.208 221.472 161.024 222.064 161.632 222.768C162.272 223.472 162.592 224.288 162.592 225.216V230.352H161.728C161.184 227.12 160.144 224.816 158.608 223.44C157.072 222.064 154.944 221.376 152.224 221.376C151.296 221.376 150.4 221.584 149.536 222C148.672 222.384 147.968 222.944 147.424 223.68C146.912 224.384 146.656 225.232 146.656 226.224C146.656 227.6 147.104 228.736 148 229.632C148.896 230.528 150.224 231.488 151.984 232.512L157.888 236.016C159.936 237.232 161.44 238.416 162.4 239.568C163.36 240.688 163.84 242.144 163.84 243.936C163.84 246.624 162.944 248.784 161.152 250.416C159.36 252.016 156.928 252.816 153.856 252.816ZM171.002 252V226.08C171.002 224.64 170.794 223.488 170.378 222.624C169.994 221.728 169.082 221.28 167.642 221.28H166.682V220.32H179.258C185.594 220.32 190.314 221.728 193.418 224.544C196.554 227.36 198.122 231.168 198.122 235.968C198.122 239.072 197.45 241.84 196.106 244.272C194.794 246.672 192.826 248.56 190.202 249.936C187.61 251.312 184.378 252 180.506 252H171.002ZM180.362 250.32C182.73 250.32 184.858 249.744 186.746 248.592C188.634 247.44 190.122 245.808 191.21 243.696C192.33 241.552 192.89 239.04 192.89 236.16C192.89 233.312 192.346 230.832 191.258 228.72C190.17 226.608 188.682 224.96 186.794 223.776C184.906 222.592 182.73 222 180.266 222C179.562 222 178.794 222.064 177.962 222.192C177.162 222.32 176.33 222.512 175.466 222.768V249.696C176.106 249.824 176.698 249.936 177.242 250.032C177.818 250.128 178.362 250.208 178.874 250.272C179.418 250.304 179.914 250.32 180.362 250.32ZM216.937 252.48C213.833 252.48 211.385 251.952 209.593 250.896C207.801 249.84 206.537 248.272 205.801 246.192C205.065 244.08 204.697 241.456 204.697 238.32V226.08C204.697 224.64 204.489 223.488 204.073 222.624C203.689 221.728 202.777 221.28 201.337 221.28H200.377V220.32H204.697C205.817 220.32 206.681 220.464 207.289 220.752C207.929 221.04 208.377 221.6 208.633 222.432C208.889 223.264 209.017 224.48 209.017 226.08V239.76C209.017 243.12 209.641 245.76 210.889 247.68C212.137 249.6 214.345 250.56 217.513 250.56C219.977 250.56 221.913 250.128 223.321 249.264C224.729 248.4 225.737 247.072 226.345 245.28C226.953 243.456 227.257 241.136 227.257 238.32V220.32H229.177V238.32C229.177 241.456 228.841 244.08 228.169 246.192C227.497 248.272 226.281 249.84 224.521 250.896C222.761 251.952 220.233 252.48 216.937 252.48ZM261.89 252.96C258.85 252.96 256.21 252.24 253.97 250.8C251.762 249.328 250.05 247.36 248.834 244.896C247.618 242.4 247.01 239.648 247.01 236.64C247.01 234.24 247.394 232 248.162 229.92C248.93 227.808 250.002 225.968 251.378 224.4C252.754 222.832 254.338 221.6 256.13 220.704C257.922 219.808 259.842 219.36 261.89 219.36C264.546 219.36 266.834 219.744 268.754 220.512C270.674 221.248 272.066 222.144 272.93 223.2C273.538 223.936 273.89 224.96 273.986 226.272C274.082 227.584 274.13 228.96 274.13 230.4H273.17C272.562 227.264 271.426 224.96 269.762 223.488C268.13 222.016 265.986 221.28 263.33 221.28C261.25 221.28 259.33 221.76 257.57 222.72C255.81 223.68 254.402 225.28 253.346 227.52C252.322 229.76 251.81 232.8 251.81 236.64C251.81 238.432 252.018 240.192 252.434 241.92C252.882 243.616 253.57 245.152 254.498 246.528C255.426 247.904 256.61 249.008 258.05 249.84C259.522 250.64 261.282 251.04 263.33 251.04C265.73 251.04 267.794 250.464 269.522 249.312C271.25 248.16 272.786 246.496 274.13 244.32L275.09 245.04C273.554 248.048 271.682 250.128 269.474 251.28C267.266 252.4 264.738 252.96 261.89 252.96ZM280.468 252V226.08C280.468 224.64 280.26 223.488 279.844 222.624C279.46 221.728 278.548 221.28 277.108 221.28H276.148V220.32H280.468C281.588 220.32 282.452 220.464 283.06 220.752C283.7 221.04 284.148 221.6 284.404 222.432C284.66 223.264 284.788 224.48 284.788 226.08V252H280.468ZM300.109 252.48C298.765 252.48 297.469 252.24 296.221 251.76C294.973 251.28 293.949 250.416 293.149 249.168C292.349 247.92 291.949 246.144 291.949 243.84V235.2C291.949 233.76 291.741 232.608 291.325 231.744C290.941 230.848 290.029 230.4 288.589 230.4H288.109V229.44H291.949C293.069 229.44 293.933 229.584 294.541 229.872C295.181 230.16 295.629 230.72 295.885 231.552C296.141 232.384 296.269 233.6 296.269 235.2V243.84C296.269 245.44 296.525 246.72 297.037 247.68C297.549 248.608 298.205 249.28 299.005 249.696C299.837 250.112 300.685 250.32 301.549 250.32C302.189 250.32 302.797 250.208 303.373 249.984C303.949 249.728 304.493 249.408 305.005 249.024C305.517 248.64 305.965 248.224 306.349 247.776V229.44H310.669V252H308.269L306.589 250.08H306.349C305.741 250.688 304.909 251.248 303.853 251.76C302.797 252.24 301.549 252.48 300.109 252.48ZM328.389 252.48C326.597 252.48 325.189 252.192 324.165 251.616C323.141 251.04 322.389 250.448 321.909 249.84H321.669L319.989 252H317.589V226.08C317.589 224.64 317.381 223.488 316.965 222.624C316.581 221.728 315.669 221.28 314.229 221.28H313.269V220.32H317.589C318.709 220.32 319.573 220.464 320.181 220.752C320.821 221.04 321.269 221.6 321.525 222.432C321.781 223.264 321.909 224.48 321.909 226.08V230.4C322.645 230.048 323.493 229.728 324.453 229.44C325.413 229.12 326.565 228.96 327.909 228.96C329.989 228.96 331.701 229.488 333.045 230.544C334.389 231.6 335.381 233.024 336.021 234.816C336.693 236.576 337.029 238.544 337.029 240.72C337.029 242.864 336.709 244.832 336.069 246.624C335.429 248.416 334.469 249.84 333.189 250.896C331.909 251.952 330.309 252.48 328.389 252.48ZM326.949 250.56C328.229 250.56 329.269 250.128 330.069 249.264C330.901 248.368 331.509 247.184 331.893 245.712C332.277 244.208 332.469 242.544 332.469 240.72C332.469 238.864 332.261 237.2 331.845 235.728C331.461 234.256 330.821 233.088 329.925 232.224C329.061 231.328 327.909 230.88 326.469 230.88C325.733 230.88 324.965 231.04 324.165 231.36C323.397 231.648 322.645 231.968 321.909 232.32V247.68C322.389 248.416 323.013 249.088 323.781 249.696C324.581 250.272 325.637 250.56 326.949 250.56ZM350.25 252.48C348.33 252.48 346.762 252.32 345.546 252C344.33 251.648 343.418 251.168 342.81 250.56C342.202 249.952 341.85 249.264 341.754 248.496C341.658 247.728 341.61 246.736 341.61 245.52H342.57C342.826 247.088 343.498 248.32 344.586 249.216C345.674 250.112 347.242 250.56 349.29 250.56C351.114 250.56 352.442 250.24 353.274 249.6C354.138 248.96 354.57 248.16 354.57 247.2C354.57 246.24 354.202 245.44 353.466 244.8C352.762 244.128 351.69 243.488 350.25 242.88L347.37 241.68C345.546 240.944 344.122 240.08 343.098 239.088C342.106 238.064 341.61 236.768 341.61 235.2C341.61 233.184 342.362 231.648 343.866 230.592C345.37 229.504 347.258 228.96 349.53 228.96C351.354 228.96 352.858 229.136 354.042 229.488C355.226 229.808 356.122 230.272 356.73 230.88C357.338 231.488 357.69 232.176 357.786 232.944C357.882 233.712 357.93 234.704 357.93 235.92H356.97C356.714 234.352 356.042 233.12 354.954 232.224C353.898 231.328 352.41 230.88 350.49 230.88C348.922 230.88 347.722 231.2 346.89 231.84C346.09 232.48 345.69 233.28 345.69 234.24C345.69 235.072 346.026 235.84 346.698 236.544C347.37 237.216 348.314 237.808 349.53 238.32L352.41 239.52C354.458 240.352 356.01 241.264 357.066 242.256C358.122 243.248 358.65 244.576 358.65 246.24C358.65 248.256 357.85 249.808 356.25 250.896C354.65 251.952 352.65 252.48 350.25 252.48ZM208.897 282.306C208.417 282.306 207.931 282.252 207.439 282.144C206.959 282.048 206.515 281.904 206.107 281.712C205.711 281.52 205.393 281.292 205.153 281.028C204.913 280.752 204.793 280.446 204.793 280.11V278.184H205.117C205.321 279.396 205.717 280.266 206.305 280.794C206.905 281.322 207.715 281.586 208.735 281.586C209.143 281.586 209.527 281.52 209.887 281.388C210.247 281.244 210.535 281.034 210.751 280.758C210.979 280.482 211.093 280.146 211.093 279.75C211.093 279.222 210.925 278.772 210.589 278.4C210.265 278.028 209.773 277.65 209.113 277.266L206.899 275.952C206.131 275.496 205.585 275.034 205.261 274.566C204.949 274.098 204.793 273.528 204.793 272.856C204.793 271.932 205.111 271.194 205.747 270.642C206.395 270.078 207.241 269.796 208.285 269.796C208.729 269.796 209.179 269.844 209.635 269.94C210.091 270.036 210.511 270.18 210.895 270.372C211.279 270.552 211.585 270.774 211.813 271.038C212.053 271.302 212.173 271.608 212.173 271.956V273.882H211.849C211.645 272.67 211.255 271.806 210.679 271.29C210.103 270.774 209.305 270.516 208.285 270.516C207.937 270.516 207.601 270.594 207.277 270.75C206.953 270.894 206.689 271.104 206.485 271.38C206.293 271.644 206.197 271.962 206.197 272.334C206.197 272.85 206.365 273.276 206.701 273.612C207.037 273.948 207.535 274.308 208.195 274.692L210.409 276.006C211.177 276.462 211.741 276.906 212.101 277.338C212.461 277.758 212.641 278.304 212.641 278.976C212.641 279.984 212.305 280.794 211.633 281.406C210.961 282.006 210.049 282.306 208.897 282.306ZM215.327 282V272.28C215.327 271.74 215.249 271.308 215.093 270.984C214.949 270.648 214.607 270.48 214.067 270.48H213.707V270.12H218.423C220.799 270.12 222.569 270.648 223.733 271.704C224.909 272.76 225.497 274.188 225.497 275.988C225.497 277.152 225.245 278.19 224.741 279.102C224.249 280.002 223.511 280.71 222.527 281.226C221.555 281.742 220.343 282 218.891 282H215.327ZM218.837 281.37C219.725 281.37 220.523 281.154 221.231 280.722C221.939 280.29 222.497 279.678 222.905 278.886C223.325 278.082 223.535 277.14 223.535 276.06C223.535 274.992 223.331 274.062 222.923 273.27C222.515 272.478 221.957 271.86 221.249 271.416C220.541 270.972 219.725 270.75 218.801 270.75C218.537 270.75 218.249 270.774 217.937 270.822C217.637 270.87 217.325 270.942 217.001 271.038V281.136C217.241 281.184 217.463 281.226 217.667 281.262C217.883 281.298 218.087 281.328 218.279 281.352C218.483 281.364 218.669 281.37 218.837 281.37ZM232.553 282.18C231.389 282.18 230.471 281.982 229.799 281.586C229.127 281.19 228.653 280.602 228.377 279.822C228.101 279.03 227.963 278.046 227.963 276.87V272.28C227.963 271.74 227.885 271.308 227.729 270.984C227.585 270.648 227.243 270.48 226.703 270.48H226.343V270.12H227.963C228.383 270.12 228.707 270.174 228.935 270.282C229.175 270.39 229.343 270.6 229.439 270.912C229.535 271.224 229.583 271.68 229.583 272.28V277.41C229.583 278.67 229.817 279.66 230.285 280.38C230.753 281.1 231.581 281.46 232.769 281.46C233.693 281.46 234.419 281.298 234.947 280.974C235.475 280.65 235.853 280.152 236.081 279.48C236.309 278.796 236.423 277.926 236.423 276.87V270.12H237.143V276.87C237.143 278.046 237.017 279.03 236.765 279.822C236.513 280.602 236.057 281.19 235.397 281.586C234.737 281.982 233.789 282.18 232.553 282.18ZM249.41 282.36C248.27 282.36 247.28 282.09 246.44 281.55C245.612 280.998 244.97 280.26 244.514 279.336C244.058 278.4 243.83 277.368 243.83 276.24C243.83 275.34 243.974 274.5 244.262 273.72C244.55 272.928 244.952 272.238 245.468 271.65C245.984 271.062 246.578 270.6 247.25 270.264C247.922 269.928 248.642 269.76 249.41 269.76C250.406 269.76 251.264 269.904 251.984 270.192C252.704 270.468 253.226 270.804 253.55 271.2C253.778 271.476 253.91 271.86 253.946 272.352C253.982 272.844 254 273.36 254 273.9H253.64C253.412 272.724 252.986 271.86 252.362 271.308C251.75 270.756 250.946 270.48 249.95 270.48C249.17 270.48 248.45 270.66 247.79 271.02C247.13 271.38 246.602 271.98 246.206 272.82C245.822 273.66 245.63 274.8 245.63 276.24C245.63 276.912 245.708 277.572 245.864 278.22C246.032 278.856 246.29 279.432 246.638 279.948C246.986 280.464 247.43 280.878 247.97 281.19C248.522 281.49 249.182 281.64 249.95 281.64C250.85 281.64 251.624 281.424 252.272 280.992C252.92 280.56 253.496 279.936 254 279.12L254.36 279.39C253.784 280.518 253.082 281.298 252.254 281.73C251.426 282.15 250.478 282.36 249.41 282.36ZM256.917 282V272.28C256.917 271.74 256.839 271.308 256.683 270.984C256.539 270.648 256.197 270.48 255.657 270.48H255.297V270.12H256.917C257.337 270.12 257.661 270.174 257.889 270.282C258.129 270.39 258.297 270.6 258.393 270.912C258.489 271.224 258.537 271.68 258.537 272.28V281.28H264.927V282H256.917ZM270.398 282.18C269.234 282.18 268.316 281.982 267.644 281.586C266.972 281.19 266.498 280.602 266.222 279.822C265.946 279.03 265.808 278.046 265.808 276.87V272.28C265.808 271.74 265.73 271.308 265.574 270.984C265.43 270.648 265.088 270.48 264.548 270.48H264.188V270.12H265.808C266.228 270.12 266.552 270.174 266.78 270.282C267.02 270.39 267.188 270.6 267.284 270.912C267.38 271.224 267.428 271.68 267.428 272.28V277.41C267.428 278.67 267.662 279.66 268.13 280.38C268.598 281.1 269.426 281.46 270.614 281.46C271.538 281.46 272.264 281.298 272.792 280.974C273.32 280.65 273.698 280.152 273.926 279.48C274.154 278.796 274.268 277.926 274.268 276.87V270.12H274.988V276.87C274.988 278.046 274.862 279.03 274.61 279.822C274.358 280.602 273.902 281.19 273.242 281.586C272.582 281.982 271.634 282.18 270.398 282.18ZM278.292 282V272.28C278.292 271.74 278.214 271.308 278.058 270.984C277.914 270.648 277.572 270.48 277.032 270.48H276.672V270.12H281.352C281.82 270.12 282.33 270.156 282.882 270.228C283.446 270.3 283.98 270.444 284.484 270.66C284.988 270.864 285.402 271.176 285.726 271.596C286.05 272.016 286.212 272.574 286.212 273.27C286.212 273.81 286.026 274.314 285.654 274.782C285.282 275.238 284.688 275.604 283.872 275.88C284.652 276 285.258 276.198 285.69 276.474C286.122 276.738 286.422 277.062 286.59 277.446C286.758 277.83 286.842 278.268 286.842 278.76C286.842 279.432 286.692 279.984 286.392 280.416C286.092 280.836 285.696 281.16 285.204 281.388C284.724 281.616 284.19 281.778 283.602 281.874C283.026 281.958 282.456 282 281.892 282H278.292ZM281.622 281.37C282.714 281.37 283.554 281.154 284.142 280.722C284.742 280.29 285.042 279.666 285.042 278.85C285.042 278.034 284.754 277.41 284.178 276.978C283.602 276.546 282.75 276.33 281.622 276.33H279.912V281.118C280.188 281.202 280.47 281.268 280.758 281.316C281.058 281.352 281.346 281.37 281.622 281.37ZM279.912 275.61H281.622C282.102 275.61 282.558 275.52 282.99 275.34C283.434 275.16 283.794 274.89 284.07 274.53C284.358 274.17 284.502 273.72 284.502 273.18C284.502 272.604 284.328 272.136 283.98 271.776C283.644 271.416 283.224 271.158 282.72 271.002C282.228 270.834 281.742 270.75 281.262 270.75C281.034 270.75 280.794 270.768 280.542 270.804C280.302 270.84 280.092 270.882 279.912 270.93V275.61ZM292.657 282.306C292.177 282.306 291.691 282.252 291.199 282.144C290.719 282.048 290.275 281.904 289.867 281.712C289.471 281.52 289.153 281.292 288.913 281.028C288.673 280.752 288.553 280.446 288.553 280.11V278.184H288.877C289.081 279.396 289.477 280.266 290.065 280.794C290.665 281.322 291.475 281.586 292.495 281.586C292.903 281.586 293.287 281.52 293.647 281.388C294.007 281.244 294.295 281.034 294.511 280.758C294.739 280.482 294.853 280.146 294.853 279.75C294.853 279.222 294.685 278.772 294.349 278.4C294.025 278.028 293.533 277.65 292.873 277.266L290.659 275.952C289.891 275.496 289.345 275.034 289.021 274.566C288.709 274.098 288.553 273.528 288.553 272.856C288.553 271.932 288.871 271.194 289.507 270.642C290.155 270.078 291.001 269.796 292.045 269.796C292.489 269.796 292.939 269.844 293.395 269.94C293.851 270.036 294.271 270.18 294.655 270.372C295.039 270.552 295.345 270.774 295.573 271.038C295.813 271.302 295.933 271.608 295.933 271.956V273.882H295.609C295.405 272.67 295.015 271.806 294.439 271.29C293.863 270.774 293.065 270.516 292.045 270.516C291.697 270.516 291.361 270.594 291.037 270.75C290.713 270.894 290.449 271.104 290.245 271.38C290.053 271.644 289.957 271.962 289.957 272.334C289.957 272.85 290.125 273.276 290.461 273.612C290.797 273.948 291.295 274.308 291.955 274.692L294.169 276.006C294.937 276.462 295.501 276.906 295.861 277.338C296.221 277.758 296.401 278.304 296.401 278.976C296.401 279.984 296.065 280.794 295.393 281.406C294.721 282.006 293.809 282.306 292.657 282.306Z" fill="white"/>
</svg>
