<svg width="62" height="62" viewBox="0 0 62 62" fill="none" xmlns="http://www.w3.org/2000/svg">
<path d="M40.4861 7.53923C40.3527 7.45552 40.2002 7.40706 40.043 7.39839C39.8858 7.38971 39.7289 7.42111 39.5871 7.48963L20.3299 16.74H4.0301C3.78345 16.74 3.5469 16.838 3.37249 17.0124C3.19808 17.1868 3.1001 17.4234 3.1001 17.67V35.03C3.1001 35.03 3.1001 35.0672 3.1001 35.0858C3.10144 35.151 3.11187 35.2157 3.1311 35.278C3.1311 35.278 3.1311 35.3338 3.1311 35.3648C3.14357 35.3987 3.15806 35.4319 3.1745 35.464V35.5136L16.1449 57.2136C16.2276 57.3519 16.3448 57.4663 16.485 57.5456C16.6252 57.625 16.7836 57.6665 16.9447 57.6662H25.7301C25.8947 57.6665 26.0564 57.6231 26.1988 57.5405C26.3412 57.4578 26.459 57.3388 26.5403 57.1957C26.6217 57.0526 26.6636 56.8905 26.6617 56.7259C26.6599 56.5613 26.6144 56.4001 26.5299 56.2588L14.4027 35.96H20.3795L39.5995 45.167C39.7407 45.2324 39.896 45.2613 40.0512 45.251C40.2064 45.2408 40.3566 45.1918 40.488 45.1086C40.6194 45.0253 40.7278 44.9104 40.8033 44.7744C40.8788 44.6384 40.9189 44.4856 40.9201 44.33V8.32663C40.9202 8.1694 40.8805 8.0147 40.8046 7.877C40.7287 7.7393 40.6191 7.62309 40.4861 7.53923ZM4.9601 18.6H19.8401V34.1H4.9601V18.6ZM24.0933 55.8H17.5275L5.6669 35.96H12.2327L24.0933 55.8ZM39.0601 42.8482L21.7001 34.534V18.1474L39.0601 9.80223V42.8482Z" fill="black"/>
<path d="M49.2902 20.77C49.4866 20.7696 49.6777 20.7066 49.8358 20.5902L56.6558 15.6302C56.8556 15.4855 56.9898 15.2674 57.0287 15.0238C57.0677 14.7802 57.0082 14.5311 56.8635 14.3313C56.7188 14.1315 56.5007 13.9974 56.2571 13.9584C56.0135 13.9195 55.7644 13.9789 55.5646 14.1236L48.7446 19.0836C48.5867 19.1993 48.4694 19.3618 48.4092 19.5481C48.3491 19.7344 48.3493 19.9349 48.4097 20.121C48.4702 20.3072 48.5878 20.4696 48.7459 20.585C48.904 20.7004 49.0945 20.763 49.2902 20.7638V20.77Z" fill="black"/>
<path d="M58.5899 25.4199H49.2899C49.0432 25.4199 48.8067 25.5179 48.6323 25.6923C48.4578 25.8667 48.3599 26.1033 48.3599 26.3499C48.3599 26.5966 48.4578 26.8331 48.6323 27.0075C48.8067 27.1819 49.0432 27.2799 49.2899 27.2799H58.5899C58.8365 27.2799 59.0731 27.1819 59.2475 27.0075C59.4219 26.8331 59.5199 26.5966 59.5199 26.3499C59.5199 26.1033 59.4219 25.8667 59.2475 25.6923C59.0731 25.5179 58.8365 25.4199 58.5899 25.4199Z" fill="black"/>
<path d="M56.6556 37.0698L49.8356 32.1098C49.7367 32.0382 49.6246 31.9867 49.5058 31.9584C49.387 31.93 49.2637 31.9254 49.1431 31.9447C49.0225 31.9639 48.9069 32.0068 48.8028 32.0708C48.6988 32.1347 48.6083 32.2186 48.5367 32.3175C48.465 32.4164 48.4136 32.5285 48.3852 32.6473C48.3569 32.7661 48.3522 32.8894 48.3715 33.01C48.3908 33.1306 48.4337 33.2462 48.4976 33.3503C48.5616 33.4543 48.6455 33.5448 48.7444 33.6164L55.5644 38.5764C55.6633 38.6481 55.7754 38.6995 55.8942 38.7279C56.013 38.7562 56.1362 38.7609 56.2569 38.7416C56.3775 38.7223 56.4931 38.6794 56.5972 38.6155C56.7012 38.5515 56.7916 38.4676 56.8633 38.3687C56.9349 38.2698 56.9864 38.1577 57.0147 38.0389C57.0431 37.9201 57.0477 37.7969 57.0285 37.6762C57.0092 37.5556 56.9663 37.44 56.9023 37.3359C56.8384 37.2319 56.7545 37.1415 56.6556 37.0698Z" fill="black"/>
</svg>
