<svg width="37" height="37" viewBox="0 0 37 37" fill="none" xmlns="http://www.w3.org/2000/svg">
<path d="M18.1054 18.5962C13.6195 18.5962 9.96973 22.2456 9.96973 26.7315C9.96973 27.0368 10.2171 27.2846 10.5228 27.2846H25.6877C25.993 27.2846 26.2408 27.0368 26.2408 26.7315C26.2408 22.2456 22.591 18.5962 18.1054 18.5962ZM11.0976 26.1785C11.3807 22.5601 14.4159 19.7023 18.1054 19.7023C21.795 19.7023 24.8301 22.5601 25.1129 26.1785H11.0976Z" fill="black"/>
<path d="M17.9724 17.8657C20.606 17.8657 22.7485 15.7232 22.7485 13.0896C22.7485 10.456 20.6057 8.31348 17.9724 8.31348C15.3388 8.31348 13.1963 10.456 13.1963 13.0896C13.1963 15.7232 15.3388 17.8657 17.9724 17.8657ZM17.9724 9.41957C19.9958 9.41957 21.6424 11.0658 21.6424 13.0896C21.6424 15.113 19.9958 16.7596 17.9724 16.7596C15.9486 16.7596 14.3024 15.1134 14.3024 13.0896C14.3024 11.0658 15.9486 9.41957 17.9724 9.41957Z" fill="black"/>
<path d="M7.29274 21.6478C8.2001 21.6478 9.09125 21.8897 9.86994 22.3476C10.1332 22.5032 10.4724 22.4144 10.6269 22.1515C10.7817 21.8882 10.694 21.549 10.4304 21.3942C9.48207 20.8363 8.39699 20.5417 7.29274 20.5417C3.8797 20.5417 1.10303 23.3184 1.10303 26.7315C1.10303 27.0367 1.35042 27.2845 1.65608 27.2845H8.66577C8.97142 27.2845 9.21882 27.0367 9.21882 26.7315C9.21882 26.4262 8.97142 26.1784 8.66577 26.1784H2.23899C2.51551 23.6344 4.67645 21.6478 7.29274 21.6478Z" fill="black"/>
<path d="M7.19459 19.6587C9.23017 19.6587 10.8867 18.0025 10.8867 15.9666C10.8867 13.9306 9.23054 12.2744 7.19459 12.2744C5.15864 12.2744 3.50244 13.9306 3.50244 15.9666C3.50244 18.0021 5.15864 19.6587 7.19459 19.6587ZM7.19459 13.3805C8.62035 13.3805 9.78064 14.5404 9.78064 15.9666C9.78064 17.3923 8.62071 18.5526 7.19459 18.5526C5.76846 18.5526 4.60854 17.3927 4.60854 15.9666C4.60854 14.5404 5.76846 13.3805 7.19459 13.3805Z" fill="black"/>
<path d="M28.9624 20.5417C27.8585 20.5417 26.7734 20.8367 25.8247 21.3942C25.5611 21.549 25.4734 21.8879 25.6282 22.1511C25.7831 22.4151 26.123 22.5025 26.3852 22.3476C27.1642 21.8897 28.0554 21.6478 28.9624 21.6478C31.5786 21.6478 33.7396 23.6344 34.0161 26.1784H27.5904C27.2851 26.1784 27.0374 26.4262 27.0374 26.7315C27.0374 27.0367 27.2851 27.2845 27.5904 27.2845H34.599C34.9043 27.2845 35.1521 27.0367 35.1521 26.7315C35.1521 23.3184 32.3754 20.5417 28.9624 20.5417Z" fill="black"/>
<path d="M29.0607 19.6587C31.0963 19.6587 32.7528 18.0025 32.7528 15.9666C32.7528 13.9306 31.0966 12.2744 29.0607 12.2744C27.0247 12.2744 25.3682 13.9306 25.3682 15.9666C25.3685 18.0021 27.0247 19.6587 29.0607 19.6587ZM29.0607 13.3805C30.4864 13.3805 31.6467 14.5404 31.6467 15.9666C31.6467 17.3923 30.4868 18.5526 29.0607 18.5526C27.6346 18.5526 26.4743 17.3927 26.4743 15.9666C26.4746 14.5404 27.6346 13.3805 29.0607 13.3805Z" fill="black"/>
</svg>
