<svg width="37" height="37" viewBox="0 0 37 37" fill="none" xmlns="http://www.w3.org/2000/svg">
<path d="M22.4823 28.5742H4.2497C4.10396 28.5742 3.96419 28.5164 3.86114 28.4133C3.75809 28.3103 3.7002 28.1705 3.7002 28.0247C3.7002 22.5883 8.03762 18.163 13.3678 18.163C18.698 18.163 23.0318 22.5883 23.0318 28.0247C23.0318 28.1705 22.9739 28.3103 22.8708 28.4133C22.7678 28.5164 22.628 28.5742 22.4823 28.5742ZM4.81386 27.4752H21.9145C21.8001 25.2759 20.8524 23.2027 19.2642 21.6771C17.6759 20.1514 15.5663 19.2879 13.3642 19.262C11.162 19.2879 9.05238 20.1514 7.46413 21.6771C5.87589 23.2027 4.92824 25.2759 4.81386 27.4752Z" fill="black"/>
<path d="M13.3712 16.4851C12.1757 16.4851 11.0071 16.1306 10.013 15.4664C9.01902 14.8022 8.24427 13.8582 7.78678 12.7537C7.32928 11.6492 7.20958 10.4338 7.44281 9.26132C7.67604 8.08879 8.25173 7.01175 9.09707 6.16641C9.94242 5.32106 11.0195 4.74537 12.192 4.51214C13.3645 4.27891 14.5799 4.39862 15.6844 4.85611C16.7889 5.31361 17.7329 6.08836 18.3971 7.08238C19.0613 8.0764 19.4158 9.24505 19.4158 10.4406C19.4138 12.0431 18.7764 13.5794 17.6432 14.7126C16.5101 15.8457 14.9737 16.4832 13.3712 16.4851ZM13.3712 5.49501C12.3931 5.49501 11.4369 5.78506 10.6236 6.32848C9.81033 6.87191 9.17645 7.6443 8.80213 8.54798C8.42781 9.45166 8.32987 10.446 8.5207 11.4054C8.71152 12.3647 9.18254 13.2459 9.87419 13.9376C10.5658 14.6292 11.447 15.1002 12.4064 15.2911C13.3657 15.4819 14.3601 15.384 15.2638 15.0096C16.1675 14.6353 16.9399 14.0014 17.4833 13.1882C18.0267 12.3749 18.3168 11.4187 18.3168 10.4406C18.3148 9.12951 17.7932 7.87272 16.8661 6.94567C15.9391 6.01862 14.6823 5.49695 13.3712 5.49501Z" fill="black"/>
<path d="M13.3639 22.7385C11.4214 22.7398 9.51527 22.2117 7.85048 21.2109C7.72564 21.1346 7.6362 21.0118 7.60185 20.8696C7.5675 20.7274 7.59105 20.5774 7.66732 20.4525C7.74359 20.3277 7.86633 20.2382 8.00854 20.2039C8.15075 20.1695 8.30078 20.1931 8.42563 20.2694C9.91956 21.1657 11.629 21.6392 13.3712 21.6392C15.1134 21.6392 16.8228 21.1657 18.3167 20.2694C18.4416 20.1941 18.5912 20.1715 18.7327 20.2065C18.8743 20.2415 18.9961 20.3314 19.0714 20.4562C19.1467 20.581 19.1693 20.7307 19.1343 20.8722C19.0992 21.0137 19.0094 21.1356 18.8845 21.2109C17.2176 22.213 15.3088 22.7412 13.3639 22.7385Z" fill="black"/>
<path d="M18.1298 9.66392C17.5436 9.68324 16.9595 9.58347 16.413 9.37065C15.8664 9.15782 15.3687 8.83636 14.95 8.4257C13.8509 9.04114 10.7591 10.4039 8.25699 8.45867C8.19998 8.41441 8.15225 8.35936 8.11651 8.29665C8.08078 8.23394 8.05775 8.16481 8.04874 8.09321C8.03972 8.0216 8.0449 7.94892 8.06397 7.87931C8.08305 7.80971 8.11565 7.74454 8.15991 7.68753C8.20417 7.63052 8.25922 7.58279 8.32193 7.54706C8.38463 7.51133 8.45376 7.4883 8.52537 7.47928C8.59698 7.47027 8.66966 7.47545 8.73926 7.49452C8.80887 7.5136 8.87404 7.54619 8.93104 7.59045C11.3562 9.47709 14.7302 7.27907 14.7668 7.25709C14.8278 7.21649 14.8964 7.18852 14.9684 7.17483C15.0405 7.16114 15.1145 7.162 15.1862 7.17736C15.2579 7.19272 15.3258 7.22227 15.3859 7.26428C15.446 7.30628 15.497 7.35989 15.5361 7.42194C15.5654 7.4659 16.3237 8.58322 18.1298 8.58322C18.2755 8.58322 18.4153 8.64112 18.5183 8.74417C18.6214 8.84722 18.6793 8.98699 18.6793 9.13273C18.6793 9.27847 18.6214 9.41824 18.5183 9.52129C18.4153 9.62434 18.2755 9.68223 18.1298 9.68223V9.66392Z" fill="black"/>
<path d="M33.8859 23.0792H23.6285C23.4828 23.0792 23.343 23.0213 23.24 22.9182C23.1369 22.8152 23.079 22.6754 23.079 22.5297C23.079 22.3839 23.1369 22.2442 23.24 22.1411C23.343 22.038 23.4828 21.9802 23.6285 21.9802H33.3108C33.193 20.5075 32.5292 19.1319 31.4495 18.1234C30.3699 17.1149 28.9523 16.5463 27.475 16.5291C26.3795 16.5297 25.3064 16.8394 24.3791 17.4226C23.4517 18.0058 22.7078 18.8389 22.2328 19.8261C22.2088 19.9005 22.1693 19.969 22.1168 20.0269C22.0643 20.0848 22 20.1309 21.9283 20.162C21.8566 20.1931 21.7791 20.2085 21.7009 20.2073C21.6227 20.206 21.5458 20.1881 21.4751 20.1547C21.4044 20.1214 21.3416 20.0733 21.291 20.0137C21.2404 19.9542 21.203 19.8845 21.1815 19.8094C21.1599 19.7342 21.1546 19.6553 21.166 19.578C21.1773 19.5006 21.2051 19.4266 21.2473 19.3608C21.8094 18.1853 22.6923 17.1926 23.7942 16.4971C24.896 15.8016 26.172 15.4317 27.475 15.4301C29.3389 15.4504 31.1186 16.2093 32.4236 17.5403C33.7285 18.8714 34.452 20.6657 34.4354 22.5297C34.4354 22.6754 34.3775 22.8152 34.2745 22.9182C34.1714 23.0213 34.0317 23.0792 33.8859 23.0792Z" fill="black"/>
<path d="M27.4753 14.2871C26.5334 14.2871 25.6126 14.0078 24.8294 13.4845C24.0463 12.9612 23.4359 12.2174 23.0754 11.3472C22.715 10.477 22.6206 9.51942 22.8044 8.59561C22.9882 7.6718 23.4417 6.82323 24.1078 6.1572C24.7738 5.49117 25.6224 5.0376 26.5462 4.85384C27.47 4.67008 28.4275 4.76439 29.2977 5.12485C30.168 5.4853 30.9117 6.0957 31.435 6.87887C31.9583 7.66204 32.2376 8.5828 32.2376 9.52471C32.2376 10.1501 32.1145 10.7694 31.8751 11.3472C31.6358 11.925 31.285 12.45 30.8428 12.8922C30.4005 13.3344 29.8755 13.6852 29.2977 13.9246C28.7199 14.1639 28.1007 14.2871 27.4753 14.2871ZM27.4753 5.86134C26.7507 5.86134 26.0424 6.07619 25.44 6.47873C24.8376 6.88127 24.368 7.4534 24.0908 8.1228C23.8135 8.79219 23.7409 9.52877 23.8823 10.2394C24.0236 10.95 24.3725 11.6028 24.8849 12.1151C25.3972 12.6274 26.05 12.9763 26.7606 13.1177C27.4712 13.259 28.2078 13.1865 28.8772 12.9092C29.5466 12.6319 30.1187 12.1624 30.5212 11.56C30.9238 10.9575 31.1386 10.2493 31.1386 9.52471C31.1386 8.55312 30.7527 7.62133 30.0657 6.93432C29.3786 6.2473 28.4469 5.86134 27.4753 5.86134Z" fill="black"/>
<path d="M30.3107 10.0376C29.1813 10.0285 28.0918 9.61821 27.2369 8.88007C26.382 8.14193 25.8173 7.12396 25.6436 6.00793C25.6222 5.86219 25.6596 5.71393 25.7475 5.59576C25.8355 5.4776 25.9667 5.3992 26.1125 5.37783C26.2582 5.35645 26.4065 5.39385 26.5247 5.48179C26.6428 5.56972 26.7212 5.701 26.7426 5.84674C26.822 6.37234 27.0158 6.87412 27.3103 7.31668C27.6048 7.75925 27.9927 8.13182 28.4468 8.40813C28.901 8.68445 29.4102 8.85777 29.9386 8.91588C30.4669 8.97399 31.0016 8.91548 31.505 8.74446C31.5733 8.72041 31.6457 8.71005 31.718 8.71397C31.7903 8.71788 31.8611 8.73601 31.9264 8.76731C31.9918 8.7986 32.0503 8.84246 32.0986 8.89636C32.147 8.95027 32.1843 9.01318 32.2083 9.08149C32.2324 9.14981 32.2427 9.22219 32.2388 9.29451C32.2349 9.36683 32.2168 9.43766 32.1855 9.50298C32.1542 9.56829 32.1103 9.6268 32.0564 9.67517C32.0025 9.72353 31.9396 9.76081 31.8713 9.78486C31.369 9.95628 30.8414 10.0417 30.3107 10.0376Z" fill="black"/>
</svg>
