<svg width="41" height="41" viewBox="0 0 41 41" fill="none" xmlns="http://www.w3.org/2000/svg">
<path d="M14.0371 13.333C8.9458 13.333 1 13.333 1 13.333V39.9998H27.6668C27.6668 39.9998 27.6668 31.8734 27.6668 26.6664" stroke="black" stroke-width="1.3"/>
<mask id="path-2-inside-1_196_1862" fill="white">
<path d="M14.4714 26.5284C14.6555 26.7125 14.9538 26.7125 15.1379 26.5284L18.9915 25.1467L25.2426 22.9335C25.3535 22.924 25.4572 22.8756 25.5358 22.7971L36.471 11.8618C36.6551 11.6779 36.6551 11.3791 36.471 11.1952L36.1375 10.8618L40.8619 6.13736C40.9584 6.0412 41.008 5.90795 40.9989 5.77187C40.9018 4.35389 40.2409 2.96513 39.1375 1.86205C38.0348 0.758966 36.6463 0.0980587 35.2277 0.000637054C35.2171 7.62939e-06 35.2064 -0.000307083 35.1954 -0.000307083C35.0709 -0.000307083 34.9509 0.0490322 34.8619 0.137657L30.1376 4.86206L29.8041 4.52862C29.7121 4.43654 29.5914 4.39066 29.4707 4.39066C29.35 4.39066 29.2293 4.43654 29.1373 4.52862L18.202 15.4639C18.1235 15.5425 18.0751 15.6465 18.0657 15.7571L15.5928 22.5067L14.4708 25.8618C14.2872 26.0457 14.2872 26.3445 14.4714 26.5284ZM35.3726 0.960413C36.4914 1.09021 37.5844 1.64175 38.471 2.52861C39.3578 3.41579 39.9097 4.50882 40.0392 5.62699L35.471 10.1952L30.8041 5.52831L35.3726 0.960413ZM29.4713 5.52862L35.4713 11.5286L24.9911 22.0089L16.5356 25.1467H15.907C15.907 25.1467 15.9174 24.527 15.907 24.5182L18.9915 16.0092L29.4713 5.52862Z"/>
</mask>
<path d="M14.4714 26.5284C14.6555 26.7125 14.9538 26.7125 15.1379 26.5284L18.9915 25.1467L25.2426 22.9335C25.3535 22.924 25.4572 22.8756 25.5358 22.7971L36.471 11.8618C36.6551 11.6779 36.6551 11.3791 36.471 11.1952L36.1375 10.8618L40.8619 6.13736C40.9584 6.0412 41.008 5.90795 40.9989 5.77187C40.9018 4.35389 40.2409 2.96513 39.1375 1.86205C38.0348 0.758966 36.6463 0.0980587 35.2277 0.000637054C35.2171 7.62939e-06 35.2064 -0.000307083 35.1954 -0.000307083C35.0709 -0.000307083 34.9509 0.0490322 34.8619 0.137657L30.1376 4.86206L29.8041 4.52862C29.7121 4.43654 29.5914 4.39066 29.4707 4.39066C29.35 4.39066 29.2293 4.43654 29.1373 4.52862L18.202 15.4639C18.1235 15.5425 18.0751 15.6465 18.0657 15.7571L15.5928 22.5067L14.4708 25.8618C14.2872 26.0457 14.2872 26.3445 14.4714 26.5284ZM35.3726 0.960413C36.4914 1.09021 37.5844 1.64175 38.471 2.52861C39.3578 3.41579 39.9097 4.50882 40.0392 5.62699L35.471 10.1952L30.8041 5.52831L35.3726 0.960413ZM29.4713 5.52862L35.4713 11.5286L24.9911 22.0089L16.5356 25.1467H15.907C15.907 25.1467 15.9174 24.527 15.907 24.5182L18.9915 16.0092L29.4713 5.52862Z" fill="black"/>
<path d="M14.4714 26.5284L15.8856 25.1142L15.8844 25.113L14.4714 26.5284ZM15.1379 26.5284L14.4629 24.6457L14.0408 24.7971L13.7237 25.1142L15.1379 26.5284ZM18.9915 25.1467L18.324 23.2614L18.3165 23.2641L18.9915 25.1467ZM25.2426 22.9335L25.0732 20.9406L24.8172 20.9624L24.575 21.0481L25.2426 22.9335ZM25.5358 22.7971L24.1215 21.3829L25.5358 22.7971ZM36.471 11.8618L35.058 10.4464L35.0568 10.4476L36.471 11.8618ZM36.471 11.1952L35.0568 12.6094L35.058 12.6106L36.471 11.1952ZM36.1375 10.8618L34.7233 9.44756L33.3091 10.8618L34.7233 12.276L36.1375 10.8618ZM40.8619 6.13736L39.45 4.72085L39.4477 4.72316L40.8619 6.13736ZM40.9989 5.77187L42.9945 5.63822L42.9943 5.63522L40.9989 5.77187ZM39.1375 1.86205L37.7231 3.27606L37.7235 3.27646L39.1375 1.86205ZM35.2277 0.000637054L35.3648 -1.99466L35.355 -1.99534L35.3452 -1.99591L35.2277 0.000637054ZM34.8619 0.137657L33.4502 -1.27905L33.4477 -1.27655L34.8619 0.137657ZM30.1376 4.86206L28.7234 6.27627L30.1376 7.6905L31.5518 6.27627L30.1376 4.86206ZM29.8041 4.52862L31.2184 3.11441L31.2184 3.11441L29.8041 4.52862ZM29.1373 4.52862L27.723 3.11441L29.1373 4.52862ZM18.202 15.4639L19.6163 16.8781L18.202 15.4639ZM18.0657 15.7571L19.9436 16.4452L20.0357 16.1938L20.0584 15.927L18.0657 15.7571ZM15.5928 22.5067L13.7148 21.8186L13.705 21.8454L13.696 21.8724L15.5928 22.5067ZM14.4708 25.8618L15.8862 27.2748L16.2184 26.942L16.3675 26.4961L14.4708 25.8618ZM35.3726 0.960413L35.6031 -1.02626L34.6424 -1.13771L33.9585 -0.453892L35.3726 0.960413ZM38.471 2.52861L37.0565 3.94257L38.471 2.52861ZM40.0392 5.62699L41.4534 7.0412L42.1371 6.35746L42.0259 5.39694L40.0392 5.62699ZM35.471 10.1952L34.0568 11.6094L35.471 13.0236L36.8852 11.6094L35.471 10.1952ZM30.8041 5.52831L29.39 4.114L27.9756 5.52821L29.3899 6.94252L30.8041 5.52831ZM29.4713 5.52862L30.8855 4.11442L29.4713 2.70014L28.0571 4.11446L29.4713 5.52862ZM35.4713 11.5286L36.8855 12.9429L38.2997 11.5286L36.8855 10.1144L35.4713 11.5286ZM24.9911 22.0089L25.687 23.8839L26.0965 23.732L26.4054 23.4231L24.9911 22.0089ZM16.5356 25.1467V27.1467H16.8947L17.2314 27.0218L16.5356 25.1467ZM15.907 25.1467L13.9073 25.1133L13.8733 27.1467H15.907V25.1467ZM15.907 24.5182L14.0267 23.8366L13.5529 25.1437L14.6131 26.0432L15.907 24.5182ZM18.9915 16.0092L17.5772 14.595L17.2628 14.9095L17.1112 15.3276L18.9915 16.0092ZM13.0572 27.9426C14.0224 28.9078 15.587 28.9078 16.5522 27.9426L13.7237 25.1142C14.3206 24.5173 15.2887 24.5173 15.8856 25.1142L13.0572 27.9426ZM15.813 28.411L19.6665 27.0294L18.3165 23.2641L14.4629 24.6457L15.813 28.411ZM19.659 27.032L25.9101 24.8188L24.575 21.0481L18.324 23.2614L19.659 27.032ZM25.4119 24.9263C25.9949 24.8767 26.539 24.6223 26.95 24.2113L24.1215 21.3829C24.3754 21.129 24.7121 20.9713 25.0732 20.9406L25.4119 24.9263ZM26.95 24.2113L37.8852 13.276L35.0568 10.4476L24.1215 21.3829L26.95 24.2113ZM37.884 13.2772C38.8508 12.312 38.8508 10.745 37.884 9.77979L35.058 12.6106C34.4595 12.0131 34.4595 11.0438 35.058 10.4464L37.884 13.2772ZM37.8852 9.781L37.5518 9.44756L34.7233 12.276L35.0568 12.6094L37.8852 9.781ZM37.5518 12.276L42.2761 7.55157L39.4477 4.72316L34.7233 9.44756L37.5518 12.276ZM42.2738 7.55388C42.7837 7.04563 43.0418 6.34543 42.9945 5.63822L39.0034 5.90552C38.9743 5.47047 39.1331 5.03676 39.45 4.72085L42.2738 7.55388ZM42.9943 5.63522C42.8608 3.68696 41.961 1.85671 40.5516 0.447639L37.7235 3.27646C38.5208 4.07356 38.9428 5.02081 39.0036 5.90852L42.9943 5.63522ZM40.552 0.448042C39.1431 -0.961176 37.3133 -1.86085 35.3648 -1.99466L35.0907 1.99594C35.9794 2.05696 36.9264 2.47911 37.7231 3.27606L40.552 0.448042ZM35.3452 -1.99591C35.2948 -1.99887 35.245 -2.00031 35.1954 -2.00031V1.99969C35.1678 1.99969 35.1393 1.99889 35.1103 1.99718L35.3452 -1.99591ZM35.1954 -2.00031C34.5421 -2.00031 33.9143 -1.74149 33.4502 -1.27905L36.2737 1.55437C35.9875 1.83955 35.5998 1.99969 35.1954 1.99969V-2.00031ZM33.4477 -1.27655L28.7234 3.44785L31.5518 6.27627L36.2762 1.55186L33.4477 -1.27655ZM31.5518 3.44785L31.2184 3.11441L28.3899 5.94283L28.7234 6.27627L31.5518 3.44785ZM31.2184 3.11441C30.735 2.63103 30.0984 2.39066 29.4707 2.39066V6.39066C29.0843 6.39066 28.6891 6.24205 28.3899 5.94283L31.2184 3.11441ZM29.4707 2.39066C28.843 2.39066 28.2064 2.63103 27.723 3.11441L30.5515 5.94283C30.2523 6.24205 29.8571 6.39066 29.4707 6.39066V2.39066ZM27.723 3.11441L16.7878 14.0497L19.6163 16.8781L30.5515 5.94283L27.723 3.11441ZM16.7878 14.0497C16.3761 14.4615 16.1224 15.0061 16.0729 15.5873L20.0584 15.927C20.0278 16.287 19.8709 16.6235 19.6163 16.8781L16.7878 14.0497ZM16.1877 15.0691L13.7148 21.8186L17.4707 23.1947L19.9436 16.4452L16.1877 15.0691ZM13.696 21.8724L12.574 25.2275L16.3675 26.4961L17.4895 23.141L13.696 21.8724ZM13.0553 24.4488C12.092 25.4138 12.092 26.979 13.0584 27.9438L15.8844 25.113C16.4825 25.71 16.4825 26.6775 15.8862 27.2748L13.0553 24.4488ZM35.1421 2.94709C35.7646 3.0193 36.4526 3.33841 37.0565 3.94257L39.8854 1.11466C38.7163 -0.0549126 37.2182 -0.838892 35.6031 -1.02626L35.1421 2.94709ZM37.0565 3.94257C37.6616 4.54784 37.9805 5.236 38.0524 5.85704L42.0259 5.39694C41.8388 3.78165 41.0541 2.28375 39.8854 1.11466L37.0565 3.94257ZM38.6249 4.21278L34.0568 8.781L36.8852 11.6094L41.4534 7.0412L38.6249 4.21278ZM36.8852 8.781L32.2183 4.1141L29.3899 6.94252L34.0568 11.6094L36.8852 8.781ZM32.2183 6.94262L36.7867 2.37472L33.9585 -0.453892L29.39 4.114L32.2183 6.94262ZM28.0571 6.94283L34.0571 12.9429L36.8855 10.1144L30.8855 4.11442L28.0571 6.94283ZM34.0571 10.1144L23.5769 20.5947L26.4054 23.4231L36.8855 12.9429L34.0571 10.1144ZM24.2953 20.1338L15.8397 23.2717L17.2314 27.0218L25.687 23.8839L24.2953 20.1338ZM16.5356 23.1467H15.907V27.1467H16.5356V23.1467ZM15.907 25.1467C17.9067 25.1802 17.9067 25.1802 17.9067 25.1801C17.9067 25.1801 17.9067 25.1801 17.9067 25.1801C17.9067 25.18 17.9067 25.18 17.9067 25.1799C17.9067 25.1798 17.9067 25.1797 17.9068 25.1795C17.9068 25.1791 17.9068 25.1785 17.9068 25.1779C17.9068 25.1765 17.9068 25.1746 17.9069 25.1721C17.907 25.1671 17.9071 25.1601 17.9072 25.1511C17.9075 25.1332 17.9079 25.1079 17.9083 25.0776C17.9091 25.0172 17.9101 24.9355 17.9108 24.8524C17.9115 24.7717 17.912 24.6801 17.9113 24.6037C17.911 24.5687 17.9104 24.5183 17.9084 24.4681C17.9076 24.448 17.9054 24.3948 17.8991 24.331C17.8966 24.3054 17.8888 24.2276 17.8695 24.1306C17.8607 24.0862 17.8387 23.9817 17.7936 23.8539C17.7847 23.8286 17.6429 23.3681 17.201 22.9932L14.6131 26.0432C14.3546 25.8239 14.2151 25.5919 14.1548 25.4823C14.0856 25.3566 14.044 25.2484 14.0213 25.1842C13.9766 25.0572 13.9549 24.9538 13.9463 24.9109C13.9276 24.8167 13.9203 24.7429 13.9183 24.7224C13.913 24.6687 13.9117 24.6297 13.9116 24.6274C13.911 24.6127 13.9113 24.6122 13.9115 24.6365C13.9118 24.6788 13.9116 24.7437 13.911 24.8191C13.9104 24.8921 13.9095 24.9658 13.9087 25.0219C13.9083 25.0498 13.9079 25.073 13.9077 25.089C13.9076 25.0971 13.9075 25.1033 13.9074 25.1074C13.9074 25.1095 13.9073 25.111 13.9073 25.112C13.9073 25.1125 13.9073 25.1129 13.9073 25.1131C13.9073 25.1132 13.9073 25.1132 13.9073 25.1133C13.9073 25.1133 13.9073 25.1133 13.9073 25.1133C13.9073 25.1133 13.9073 25.1133 13.9073 25.1133C13.9073 25.1133 13.9073 25.1133 15.907 25.1467ZM17.7873 25.1998L20.8718 16.6908L17.1112 15.3276L14.0267 23.8366L17.7873 25.1998ZM20.4057 17.4233L30.8856 6.94279L28.0571 4.11446L17.5772 14.595L20.4057 17.4233Z" fill="black" mask="url(#path-2-inside-1_196_1862)"/>
</svg>
