<svg width="37" height="37" viewBox="0 0 37 37" fill="none" xmlns="http://www.w3.org/2000/svg">
<path d="M19.1541 19.7031C11.7591 19.7031 5.74268 25.9448 5.74268 33.6163C5.74268 33.9216 5.99007 34.1694 6.29572 34.1694H32.0124C32.3177 34.1694 32.5655 33.9216 32.5655 33.6163C32.5655 25.9445 26.5494 19.7031 19.1541 19.7031ZM6.8602 33.0633C7.13931 26.2571 12.547 20.8092 19.1541 20.8092C25.7612 20.8092 31.1689 26.2571 31.4483 33.0633H6.8602Z" fill="black"/>
<path d="M18.9228 18.1835C23.1879 18.1835 26.6577 14.5923 26.6577 10.1779C26.6577 5.76349 23.1883 2.17236 18.9228 2.17236C14.6573 2.17236 11.1875 5.76385 11.1875 10.1779C11.1875 14.592 14.6573 18.1835 18.9228 18.1835ZM18.9228 3.27846C22.5781 3.27846 25.5516 6.37368 25.5516 10.1779C25.5516 13.9821 22.5781 17.0774 18.9228 17.0774C15.2671 17.0774 12.2936 13.9821 12.2936 10.1779C12.2936 6.37368 15.2675 3.27846 18.9228 3.27846Z" fill="black"/>
</svg>
