<svg width="37" height="37" viewBox="0 0 37 37" fill="none" xmlns="http://www.w3.org/2000/svg">
<path d="M18.4539 11.2568C14.6889 11.2568 11.626 14.3198 11.626 18.0848C11.626 21.8497 14.6889 24.9127 18.4539 24.9127C22.2189 24.9127 25.2818 21.8497 25.2818 18.0848C25.2818 14.3198 22.2189 11.2568 18.4539 11.2568ZM18.4539 23.8055C15.2994 23.8055 12.7332 21.2393 12.7332 18.0848C12.7332 14.9303 15.2994 12.3641 18.4539 12.3641C21.6084 12.3641 24.1746 14.9303 24.1746 18.0848C24.1746 21.2393 21.6084 23.8055 18.4539 23.8055Z" fill="black"/>
<path d="M35.1453 15.3171L30.7282 14.6487C30.4853 13.83 30.1572 13.035 29.7498 12.2773L32.3983 8.6851C32.5607 8.46477 32.5378 8.1588 32.3444 7.96503L28.943 4.56399C28.7492 4.37059 28.4432 4.34734 28.2229 4.50973L24.6421 7.14937C23.8811 6.73601 23.0809 6.4031 22.2556 6.15619L21.5909 1.76269C21.55 1.49179 21.3175 1.29175 21.0436 1.29175H16.2338C15.9599 1.29175 15.7274 1.49179 15.6864 1.76269L15.0217 6.15619C14.1965 6.4031 13.3963 6.73638 12.6353 7.14937L9.05449 4.50973C8.83415 4.34734 8.52819 4.37022 8.33442 4.56399L4.93337 7.96503C4.73998 8.15843 4.71672 8.46477 4.87912 8.6851L7.52762 12.2773C7.12016 13.035 6.79205 13.83 6.54919 14.6487L2.13208 15.3171C1.86117 15.358 1.66113 15.5905 1.66113 15.8644V20.6742C1.66113 20.9481 1.86117 21.1806 2.13171 21.2216L6.5706 21.8933C6.81604 22.703 7.14341 23.4873 7.54755 24.2336L4.87875 27.8535C4.71636 28.0738 4.73961 28.3798 4.933 28.5736L8.33405 31.9746C8.52745 32.1684 8.83378 32.1913 9.05412 32.0289L12.6858 29.3516C13.4284 29.7502 14.2079 30.0728 15.011 30.3138L15.6861 34.7759C15.727 35.0468 15.9596 35.2469 16.2334 35.2469H21.0432C21.3171 35.2469 21.5496 35.0468 21.5906 34.7759L22.2656 30.3138C23.0687 30.0728 23.8482 29.7502 24.5908 29.3516L28.2225 32.0289C28.4429 32.1913 28.7488 32.168 28.9426 31.9746L32.344 28.5736C32.5374 28.3802 32.5607 28.0738 32.3979 27.8535L29.7291 24.2336C30.1336 23.4873 30.461 22.703 30.706 21.8933L35.1449 21.2216C35.4155 21.1806 35.6155 20.9481 35.6155 20.6742V15.8644C35.6159 15.5909 35.4158 15.358 35.1453 15.3171ZM34.5086 20.1981L30.1893 20.8517C29.9723 20.8846 29.7952 21.0426 29.7376 21.254C29.4778 22.2118 29.0924 23.1345 28.5923 23.997C28.4816 24.1878 28.4945 24.4259 28.6256 24.6034L31.2239 28.1277L28.496 30.8556L24.961 28.2495C24.7838 28.1192 24.5469 28.1056 24.3568 28.2152C23.4965 28.7094 22.5786 29.0895 21.6275 29.3446C21.4153 29.4018 21.2566 29.5789 21.2237 29.7967L20.5667 34.1404H16.7092L16.0522 29.7967C16.0193 29.5793 15.8606 29.4018 15.6484 29.3446C14.6973 29.0895 13.7794 28.7094 12.9191 28.2152C12.729 28.106 12.4917 28.1196 12.3149 28.2495L8.7799 30.8556L6.05205 28.1277L8.65035 24.6034C8.781 24.4259 8.79429 24.1878 8.68357 23.997C8.18347 23.1348 7.79815 22.2118 7.53832 21.254C7.48074 21.0422 7.30359 20.8846 7.08657 20.8517L2.76726 20.1981V16.3405L7.06701 15.6902C7.28513 15.6573 7.46303 15.4979 7.5195 15.2846C7.77527 14.3191 8.15985 13.386 8.66327 12.5113C8.77288 12.3209 8.75923 12.0836 8.62894 11.9068L6.05205 8.41125L8.7799 5.6834L12.2651 8.25255C12.4426 8.3832 12.6807 8.39649 12.8719 8.28539C13.7484 7.77607 14.6862 7.38595 15.6584 7.12575C15.871 7.06891 16.0297 6.89139 16.0625 6.67363L16.7092 2.39861H20.5667L21.2134 6.67363C21.2462 6.89139 21.4049 7.06891 21.6175 7.12575C22.5897 7.38595 23.5271 7.77607 24.404 8.28539C24.5949 8.39685 24.8329 8.3832 25.0108 8.25255L28.496 5.6834L31.2239 8.41125L28.647 11.9068C28.5167 12.0836 28.503 12.3209 28.6126 12.5113C29.1157 13.386 29.5006 14.3191 29.7564 15.2846C29.8129 15.4979 29.9908 15.657 30.2089 15.6902L34.5086 16.3405V20.1981Z" fill="black"/>
</svg>
