<svg width="17" height="11" viewBox="0 0 17 11" fill="none" xmlns="http://www.w3.org/2000/svg">
<path d="M8.67122 6.15572L8.6712 6.15569L8.66691 6.15843C8.63228 6.18057 8.58111 6.19696 8.52497 6.19696H8.52133C8.44281 6.19696 8.39019 6.17194 8.37107 6.15662L8.37037 6.15606L1.15271 0.4H15.8852L9.00317 5.89496L9.00278 5.89527L8.69902 6.13844L8.69898 6.13846L8.69687 6.13978L8.67122 6.15572ZM10.6615 6.47692L15.9651 10.6H1.02968L6.34472 6.44631L7.42461 7.30807L7.42572 7.30894C7.73247 7.55196 8.12344 7.67805 8.52375 7.67805C8.92365 7.67805 9.31485 7.55091 9.62179 7.30725L9.6227 7.30652L10.6615 6.47692ZM5.14756 5.49142L0.4 9.20221V1.70513L5.14756 5.49142ZM16.6 1.73613V9.20719L11.8593 5.52114L16.6 1.73613Z" stroke="white" stroke-width="0.8"/>
</svg>
