<svg width="17" height="16" viewBox="0 0 17 16" fill="none" xmlns="http://www.w3.org/2000/svg">
<mask id="path-1-inside-1_12_964" fill="white">
<path d="M16.9919 12.6271C17.0279 12.887 16.9438 13.113 16.7399 13.3051L14.3464 15.5423C14.2384 15.6553 14.0975 15.7514 13.9235 15.8304C13.7495 15.9095 13.5786 15.9604 13.4107 15.9829C13.3987 15.9829 13.3626 15.9858 13.3026 15.9915C13.2427 15.9971 13.1647 16 13.0687 16C12.8407 16 12.4717 15.9633 11.9618 15.8898C11.4519 15.8163 10.8281 15.6355 10.0902 15.3474C9.35226 15.0593 8.51544 14.627 7.57965 14.0508C6.64385 13.4746 5.648 12.6836 4.59219 11.6779C3.75234 10.8983 3.05647 10.1525 2.50457 9.44069C1.95267 8.7288 1.50875 8.07061 1.17282 7.46609C0.836847 6.86157 0.584893 6.31355 0.416924 5.82202C0.248955 5.3305 0.134975 4.90677 0.0749863 4.55084C0.0149973 4.19491 -0.00899836 3.91525 0.00299945 3.71186C0.0149973 3.50847 0.0209962 3.39547 0.0209962 3.37288C0.0449918 3.21468 0.0989819 3.05367 0.182967 2.88983C0.266951 2.72598 0.368933 2.59322 0.488911 2.49152L2.88247 0.237288C3.05044 0.0790959 3.24241 0 3.45837 0C3.61434 0 3.75231 0.0423728 3.87229 0.127118C3.99227 0.211864 4.09425 0.316384 4.17824 0.440677L6.10389 3.88135C6.21187 4.06214 6.24186 4.25988 6.19387 4.47457C6.14588 4.68926 6.0439 4.87005 5.88792 5.01694L5.00609 5.84745C4.98209 5.87005 4.96109 5.90677 4.9431 5.95762C4.9251 6.00846 4.9161 6.05084 4.9161 6.08473C4.96409 6.32202 5.07207 6.59321 5.24004 6.89829C5.38402 7.16948 5.60598 7.49999 5.90592 7.88982C6.20587 8.27965 6.63179 8.72877 7.18369 9.23724C7.72359 9.75707 8.2035 10.161 8.62342 10.4492C9.04326 10.7372 9.39431 10.9491 9.67626 11.0847C9.95821 11.2203 10.1742 11.3022 10.3241 11.3304L10.549 11.3728C10.573 11.3728 10.6121 11.3643 10.666 11.3474C10.72 11.3304 10.759 11.3107 10.783 11.288L11.8088 10.305C12.0249 10.1242 12.2767 10.0338 12.5647 10.0338C12.7687 10.0338 12.9306 10.0677 13.0506 10.1355H13.0686L16.5419 12.0677C16.7939 12.2147 16.9439 12.4011 16.9919 12.6271Z"/>
</mask>
<path d="M16.9919 12.6271L17.9824 12.4898L17.9775 12.4543L17.9701 12.4192L16.9919 12.6271ZM16.7399 13.3051L17.4228 14.0356L17.4256 14.0329L16.7399 13.3051ZM14.3464 15.5423L13.6635 14.8117L13.6429 14.831L13.6234 14.8514L14.3464 15.5423ZM13.9235 15.8304L13.51 14.9199L13.5095 14.9201L13.9235 15.8304ZM13.4107 15.9829V16.9829H13.4776L13.5439 16.974L13.4107 15.9829ZM13.3026 15.9915L13.396 16.9871L13.3963 16.9871L13.3026 15.9915ZM10.0902 15.3474L10.454 14.4159L10.4539 14.4159L10.0902 15.3474ZM7.57965 14.0508L8.10397 13.1993L8.10395 13.1993L7.57965 14.0508ZM4.59219 11.6779L5.28195 10.9538L5.27255 10.9451L4.59219 11.6779ZM2.50457 9.44069L1.71426 10.0534L1.71428 10.0534L2.50457 9.44069ZM1.17282 7.46609L2.04691 6.98034L2.0469 6.98031L1.17282 7.46609ZM0.0209962 3.37288L-0.967694 3.2229L-0.979004 3.29746V3.37288H0.0209962ZM0.488911 2.49152L1.1355 3.25436L1.15546 3.23744L1.17451 3.2195L0.488911 2.49152ZM2.88247 0.237288L3.56807 0.965265L2.88247 0.237288ZM4.17824 0.440677L5.05086 -0.0477084L5.03034 -0.0843754L5.00682 -0.119192L4.17824 0.440677ZM6.10389 3.88135L5.23126 4.36973L5.23814 4.38203L5.24536 4.39412L6.10389 3.88135ZM5.88792 5.01694L5.20232 4.28896H5.20232L5.88792 5.01694ZM5.00609 5.84745L5.69169 6.57542H5.69169L5.00609 5.84745ZM4.9161 6.08473H3.9161V6.18485L3.93595 6.28297L4.9161 6.08473ZM5.24004 6.89829L6.12329 6.42938L6.11972 6.42266L6.11605 6.41599L5.24004 6.89829ZM7.18369 9.23724L7.87728 8.51687L7.86936 8.50925L7.86127 8.5018L7.18369 9.23724ZM8.62342 10.4492L8.05757 11.2737L8.05771 11.2738L8.62342 10.4492ZM10.3241 11.3304L10.5094 10.3477L10.5087 10.3476L10.3241 11.3304ZM10.549 11.3728L10.3637 12.3555L10.4556 12.3728H10.549V11.3728ZM10.666 11.3474L10.9654 12.3015L10.966 12.3013L10.666 11.3474ZM10.783 11.288L11.4687 12.016L11.4749 12.01L10.783 11.288ZM11.8088 10.305L11.1672 9.53798L11.1413 9.55964L11.1169 9.583L11.8088 10.305ZM13.0506 10.1355L12.5585 11.0061L12.7875 11.1355H13.0506V10.1355ZM13.0686 10.1355L13.5547 9.26164L13.328 9.13552H13.0686V10.1355ZM16.5419 12.0677L17.0457 11.2039L17.0369 11.1988L17.028 11.1938L16.5419 12.0677ZM16.0014 12.7644C15.9987 12.7452 15.998 12.6984 16.0186 12.6431C16.0382 12.5902 16.0624 12.5695 16.0542 12.5772L17.4256 14.0329C17.8461 13.6368 18.0664 13.0956 17.9824 12.4898L16.0014 12.7644ZM16.0571 12.5745L13.6635 14.8117L15.0292 16.2728L17.4228 14.0356L16.0571 12.5745ZM13.6234 14.8514C13.6206 14.8544 13.5923 14.8825 13.51 14.9199L14.337 16.7409C14.6026 16.6203 14.8562 16.4562 15.0693 16.2331L13.6234 14.8514ZM13.5095 14.9201C13.4134 14.9638 13.3368 14.9839 13.2774 14.9919L13.5439 16.974C13.8204 16.9369 14.0856 16.8552 14.3375 16.7407L13.5095 14.9201ZM13.4107 14.9829C13.3391 14.9829 13.2421 14.9928 13.2089 14.9959L13.3963 16.9871C13.41 16.9858 13.4217 16.9847 13.4316 16.9839C13.4415 16.983 13.4488 16.9824 13.4539 16.982C13.4564 16.9818 13.4579 16.9816 13.4586 16.9816C13.4595 16.9815 13.4588 16.9816 13.4571 16.9817C13.4556 16.9818 13.4513 16.982 13.4452 16.9823C13.442 16.9824 13.4376 16.9826 13.4323 16.9827C13.4271 16.9828 13.4197 16.9829 13.4107 16.9829V14.9829ZM13.2091 14.9959C13.1925 14.9974 13.1488 15 13.0687 15V17C13.1806 17 13.2929 16.9968 13.396 16.9871L13.2091 14.9959ZM13.0687 15C12.9183 15 12.6108 14.973 12.1044 14.9L11.8192 16.8796C12.3327 16.9536 12.7631 17 13.0687 17V15ZM12.1044 14.9C11.6992 14.8416 11.1543 14.6894 10.454 14.4159L9.72653 16.2789C10.5018 16.5817 11.2046 16.791 11.8192 16.8796L12.1044 14.9ZM10.4539 14.4159C9.78859 14.1561 9.00681 13.7552 8.10397 13.1993L7.05532 14.9023C8.02408 15.4989 8.91593 15.9625 9.72655 16.2789L10.4539 14.4159ZM8.10395 13.1993C7.24324 12.6693 6.3025 11.926 5.2819 10.9539L3.90248 12.402C4.99349 13.4412 6.04445 14.2799 7.05534 14.9024L8.10395 13.1993ZM5.27255 10.9451C4.46239 10.193 3.80591 9.4871 3.29486 8.82796L1.71428 10.0534C2.30703 10.818 3.0423 11.6036 3.91183 12.4108L5.27255 10.9451ZM3.29489 8.82799C2.76535 8.14494 2.35211 7.52953 2.04691 6.98034L0.298716 7.95184C0.665402 8.61168 1.14 9.31266 1.71426 10.0534L3.29489 8.82799ZM2.0469 6.98031C1.73094 6.4118 1.50687 5.91909 1.3632 5.49865L-0.529348 6.14539C-0.337088 6.708 -0.0572448 7.31134 0.298734 7.95187L2.0469 6.98031ZM1.3632 5.49865C1.20583 5.03816 1.10911 4.66962 1.06108 4.38464L-0.911106 4.71704C-0.839158 5.14393 -0.707921 5.62284 -0.529348 6.14539L1.3632 5.49865ZM1.06108 4.38464C1.0056 4.05546 0.995852 3.86249 1.00126 3.77075L-0.995265 3.65297C-1.01385 3.968 -0.975604 4.33435 -0.911106 4.71704L1.06108 4.38464ZM1.00126 3.77075C1.01183 3.59171 1.021 3.43398 1.021 3.37288H-0.979004C-0.979004 3.3585 -0.978629 3.34922 -0.978735 3.35242C-0.978756 3.35307 -0.978867 3.35616 -0.979151 3.36258C-0.979714 3.3753 -0.980665 3.39459 -0.982097 3.42155C-0.984941 3.47514 -0.989306 3.55195 -0.995265 3.65297L1.00126 3.77075ZM1.00969 3.52285C1.01526 3.4861 1.03084 3.42797 1.07286 3.34598L-0.706932 2.43367C-0.832874 2.67936 -0.925277 2.94327 -0.967694 3.2229L1.00969 3.52285ZM1.07286 3.34598C1.10685 3.27968 1.13167 3.25761 1.1355 3.25436L-0.157679 1.72868C-0.393803 1.92882 -0.572952 2.17229 -0.706932 2.43367L1.07286 3.34598ZM1.17451 3.2195L3.56807 0.965265L2.19687 -0.490689L-0.196691 1.76354L1.17451 3.2195ZM3.56807 0.965265C3.57319 0.96045 3.56194 0.972145 3.53339 0.983913C3.50368 0.996152 3.47573 1 3.45837 1V-1C2.96905 -1 2.53644 -0.810487 2.19687 -0.490689L3.56807 0.965265ZM3.45837 1C3.44484 1 3.41874 0.997999 3.38525 0.987716C3.35122 0.977262 3.32031 0.961531 3.29536 0.943909L4.44923 -0.689672C4.14977 -0.901195 3.80744 -1 3.45837 -1V1ZM3.29536 0.943909C3.3145 0.957431 3.33187 0.974229 3.34966 1.00055L5.00682 -0.119192C4.85663 -0.341461 4.67004 -0.533703 4.44923 -0.689672L3.29536 0.943909ZM3.30561 0.929063L5.23126 4.36973L6.97651 3.39296L5.05086 -0.0477084L3.30561 0.929063ZM5.24536 4.39412C5.23642 4.37915 5.22415 4.35129 5.21868 4.31522C5.21616 4.2986 5.21571 4.28422 5.21619 4.27314C5.21667 4.26223 5.21796 4.2564 5.21795 4.25641L7.16978 4.69272C7.27083 4.24067 7.20792 3.77963 6.96241 3.36858L5.24536 4.39412ZM5.21795 4.25641C5.21407 4.27379 5.21041 4.27986 5.2104 4.27987C5.21014 4.28033 5.2098 4.2809 5.20903 4.28187C5.20824 4.28287 5.20626 4.28526 5.20232 4.28896L6.57353 5.74492C6.87915 5.45708 7.07941 5.09701 7.16978 4.69272L5.21795 4.25641ZM5.20232 4.28896L4.32048 5.11947L5.69169 6.57542L6.57353 5.74492L5.20232 4.28896ZM4.32048 5.11947C4.12939 5.29945 4.04157 5.50765 4.0004 5.62396L5.88579 6.29127C5.87999 6.30766 5.86642 6.3429 5.84047 6.38829C5.81505 6.43274 5.76867 6.50293 5.69169 6.57542L4.32048 5.11947ZM4.0004 5.62396C3.96417 5.72633 3.9161 5.89024 3.9161 6.08473H5.9161C5.9161 6.15373 5.90726 6.20598 5.90104 6.23526C5.89459 6.26562 5.88799 6.28505 5.88579 6.29127L4.0004 5.62396ZM3.93595 6.28297C4.01074 6.65279 4.16665 7.02208 4.36404 7.38059L6.11605 6.41599C5.97749 6.16433 5.91744 5.99126 5.89626 5.8865L3.93595 6.28297ZM4.3568 7.36721C4.5378 7.70814 4.79701 8.08846 5.11337 8.49963L6.69847 7.28001C6.41494 6.91152 6.23023 6.63082 6.12329 6.42938L4.3568 7.36721ZM5.11337 8.49963C5.46101 8.95144 5.93172 9.44351 6.50611 9.97269L7.86127 8.5018C7.33185 8.01404 6.95072 7.60785 6.69847 7.28001L5.11337 8.49963ZM6.4901 9.95762C7.05307 10.4997 7.5766 10.9436 8.05757 11.2737L9.18928 9.62466C8.83041 9.37837 8.39411 9.01449 7.87728 8.51687L6.4901 9.95762ZM8.05771 11.2738C8.49698 11.5751 8.89546 11.8189 9.24286 11.9859L10.1097 10.1835C9.89317 10.0794 9.58954 9.89925 9.18914 9.62456L8.05771 11.2738ZM9.24286 11.9859C9.53914 12.1284 9.85363 12.2595 10.1395 12.3132L10.5087 10.3476C10.5131 10.3484 10.4822 10.3424 10.4043 10.3128C10.3305 10.2849 10.2332 10.243 10.1097 10.1835L9.24286 11.9859ZM10.1388 12.3131L10.3637 12.3555L10.7343 10.3901L10.5094 10.3477L10.1388 12.3131ZM10.549 12.3728C10.7412 12.3728 10.9105 12.3188 10.9654 12.3015L10.3667 10.3932C10.3576 10.3961 10.3648 10.3934 10.3839 10.3893C10.394 10.3871 10.4121 10.3834 10.4364 10.3802C10.4594 10.3771 10.4987 10.3728 10.549 10.3728V12.3728ZM10.966 12.3013C11.0741 12.2673 11.2823 12.1915 11.4686 12.016L10.0974 10.5601C10.1734 10.4885 10.2439 10.448 10.2835 10.4279C10.3249 10.4069 10.3552 10.3968 10.3661 10.3934L10.966 12.3013ZM11.4749 12.01L12.5007 11.027L11.1169 9.583L10.0911 10.566L11.4749 12.01ZM12.4505 11.072C12.4824 11.0452 12.5058 11.0338 12.5647 11.0338V9.03383C12.0476 9.03383 11.5673 9.20322 11.1672 9.53798L12.4505 11.072ZM12.5647 11.0338C12.5882 11.0338 12.6057 11.0348 12.6176 11.0359C12.6296 11.037 12.6348 11.0381 12.6343 11.038C12.6341 11.038 12.604 11.0318 12.5585 11.0061L13.5427 9.26499C13.2174 9.08109 12.8642 9.03383 12.5647 9.03383V11.0338ZM13.0506 11.1355H13.0686V9.13552H13.0506V11.1355ZM12.5824 11.0094L16.0558 12.9416L17.028 11.1938L13.5547 9.26164L12.5824 11.0094ZM16.0381 12.9315C16.0811 12.9566 16.0805 12.9649 16.0642 12.9446C16.0559 12.9342 16.0452 12.9185 16.0353 12.8978C16.0253 12.877 16.0181 12.8554 16.0137 12.8349L17.9701 12.4192C17.8488 11.8485 17.4728 11.453 17.0457 11.2039L16.0381 12.9315Z" fill="white" mask="url(#path-1-inside-1_12_964)"/>
</svg>
