<svg width="16" height="24" viewBox="0 0 16 24" fill="none" xmlns="http://www.w3.org/2000/svg">
<path d="M2.70498 2.8021C5.6324 -0.267383 10.368 -0.267345 13.295 2.80208C14.6039 4.17467 15.3537 6.18132 15.4807 8.26713C15.6077 10.3526 15.1081 12.4577 13.9931 14.0167L13.9877 14.0243L13.9825 14.0321L8 23.0926L2.01748 14.0321L2.01235 14.0243L2.00692 14.0167C0.891867 12.4577 0.392327 10.3526 0.519283 8.26713C0.646261 6.18132 1.39611 4.17469 2.70498 2.8021ZM2.70498 2.8021L2.34315 2.45702M2.70498 2.8021L2.34315 2.45702M2.34315 2.45702C5.46756 -0.819008 10.5329 -0.819008 13.6568 2.45702C16.4718 5.40905 16.7887 10.9674 14.3998 14.3076H1.60023C-0.788731 10.9674 -0.471846 5.40905 2.34315 2.45702ZM4.93719 8.30754C4.93719 10.0906 6.32108 11.5768 8.0779 11.5768C9.83473 11.5768 11.2186 10.0906 11.2186 8.30754C11.2186 6.52451 9.83473 5.03828 8.0779 5.03828C6.32108 5.03828 4.93719 6.52451 4.93719 8.30754Z" stroke="white"/>
</svg>
